<?xml version="1.0" encoding="UTF-8"?>
<svg id="Calque_2" data-name="Calque 2" xmlns="http://www.w3.org/2000/svg" viewBox="0 0 314.32 463.42">
  <g id="Calque_1-2" data-name="Calque 1">
    <g>
      <g>
        <g>
          <path d="M.66,252.59V35.76C.66,16.37,16.8.66,36.7.66h240.91c19.91,0,36.05,15.72,36.05,35.1v216.83" style="fill: #fff;"/>
          <path d="M314.32,252.59h-1.31V35.76c0-18.99-15.88-34.44-35.39-34.44H36.7C17.19,1.31,1.31,16.77,1.31,35.76v216.83H0V35.76C0,16.04,16.46,0,36.7,0h240.91c20.24,0,36.7,16.04,36.7,35.76v216.83Z" style="fill: #006e82;"/>
        </g>
        <g>
          <path d="M289.48,256.86h-104.47c-12.33,0-22.88,5.35-28.61,15.12-5.94-9.77-16.5-15.12-28.61-15.12H25.08c-14.08,0-24.21-9.32-24.42-21.56v206.27c0,11.71,9.49,21.2,21.2,21.2h270.6c11.71,0,21.2-9.49,21.2-21.2v-206.27c0,12.24-10.34,21.56-24.19,21.56Z" style="fill: #006e83;"/>
          <path d="M292.46,463.42H21.86c-12.05,0-21.86-9.8-21.86-21.86v-206.27h1.31c.21,12.11,10.21,20.9,23.77,20.9h102.7c12.18,0,22.54,5.28,28.6,14.53,5.87-9.25,16.23-14.53,28.62-14.53h104.47c13.41,0,23.53-8.99,23.53-20.9h1.31v206.27c0,12.05-9.81,21.86-21.86,21.86ZM1.31,242.54v199.03c0,11.33,9.22,20.55,20.55,20.55h270.6c11.33,0,20.55-9.22,20.55-20.55v-198.85c-3.27,8.79-12.31,14.79-23.53,14.79h-104.47c-12.31,0-22.53,5.39-28.05,14.8l-.56.95-.57-.94c-5.72-9.41-15.94-14.81-28.05-14.81H25.08c-11.46,0-20.5-5.98-23.77-14.97Z" style="fill: #006e82;"/>
        </g>
        <g>
          <path d="M53.53,382c-.24-.22-.36-.53-.37-.92l-2.31-66.16c-.02-.46.08-.79.31-.99.22-.2.56-.31,1.02-.33l2.36-.08c.46-.01.8.07,1.04.26.23.19.36.51.38.97l2.19,62.72,8.44-.3c.46-.01.8.09,1.04.31.24.22.37.56.39,1.02l.07,2.06c.01.39-.09.71-.32.94-.22.24-.56.37-1.02.38l-12.17.43c-.46.01-.81-.09-1.04-.31Z" style="fill: #fff;"/>
          <path d="M71.51,317.34c-.24-.25-.36-.61-.38-1.07l-.07-2.06c-.02-.39.09-.7.31-.94.22-.24.56-.36,1.02-.38l9.62-.34c.72-.03,1.16.39,1.33,1.23l6.92,65.9c.02.46-.09.81-.31,1.04-.22.24-.53.36-.92.38l-2.45.09c-.46.02-.8-.09-1.04-.31-.24-.22-.36-.53-.37-.92l-5.63-62.5-6.97.24c-.46.01-.81-.1-1.04-.36ZM74.99,381.59l-2.45.09c-.46.02-.79-.09-1-.31-.21-.22-.31-.56-.33-1.02l2.22-62.88,4.23-.05-1.44,62.85c.03.85-.39,1.29-1.23,1.32ZM74.99,350.74l9.52-.33.15,4.32-9.52.33-.15-4.32Z" style="fill: #fff;"/>
          <path d="M95.14,380.55c-.24-.22-.36-.53-.37-.92l-2.31-66.16c-.02-.39.09-.7.31-.94.22-.24.56-.36,1.02-.38l8.05-.28c3.41-.12,5.87.63,7.4,2.25s2.35,3.93,2.46,6.94l.59,16.88c.07,2.1-.3,3.8-1.1,5.1-.81,1.31-2.19,1.99-4.15,2.06l-.59.02v-.2s.48-.02.48-.02c2.09-.07,3.59.51,4.48,1.76.89,1.25,1.38,2.82,1.45,4.72l.67,19.24c.1,3.01-.57,5.39-2.02,7.15s-3.83,2.69-7.18,2.8l-8.15.28c-.46.02-.81-.08-1.04-.31ZM107.47,374.56c.62-.81.91-2.16.84-4.06l-.67-19.24c-.05-1.44-.4-2.49-1.04-3.16-.65-.67-1.72-.97-3.23-.92l-5.3.19-.14-4.03,5.3-.19c1.51-.05,2.55-.43,3.15-1.14.6-.71.87-1.81.82-3.32l-.6-17.18c-.06-1.83-.44-3.13-1.12-3.89-.68-.76-1.84-1.12-3.48-1.06l-4.32.15,2.07,59.29,4.42-.16c1.57-.05,2.67-.48,3.3-1.29Z" style="fill: #fff;"/>
          <path d="M120.18,379.67c-.24-.22-.36-.53-.37-.92l-2.31-66.16c-.02-.46.08-.79.31-.99.22-.21.56-.32,1.02-.33l12.46-.44c.46-.01.8.07,1.04.26.24.19.36.51.38.97l.07,2.06c.02.46-.08.8-.3,1.04-.22.24-.56.37-1.02.38l-8.74.31,2.07,59.29,8.74-.31c.46-.01.8.09,1.04.31.24.22.36.56.38,1.02l.07,2.06c.01.39-.09.71-.31.95s-.56.36-1.02.38l-12.46.44c-.46.01-.81-.09-1.04-.31ZM121.05,341.46l9.91-.35c.46-.02.8.1,1.04.36.24.25.36.61.38,1.07l.07,1.96c.01.39-.09.73-.31.99-.22.27-.56.41-1.02.43l-9.91.35-.17-4.81Z" style="fill: #fff;"/>
          <path d="M139.41,379c-.24-.22-.36-.53-.37-.92l-2.31-66.16c-.02-.46.08-.79.31-.99.22-.21.56-.32,1.02-.33l2.36-.08c.46-.01.8.07,1.04.26.23.19.36.51.37.97l2.19,62.72,8.44-.3c.46-.01.8.09,1.04.31.24.22.37.56.39,1.02l.07,2.06c.01.39-.09.71-.32.94-.22.24-.56.37-1.02.38l-12.17.43c-.46.01-.81-.09-1.04-.31Z" style="fill: #fff;"/>
          <path d="M157.77,378.36c-.24-.22-.36-.53-.37-.92l-2.31-66.16c-.02-.46.08-.79.31-.99.21-.21.56-.31,1.01-.33l2.36-.08c.46-.02.8.07,1.04.26.23.19.36.51.38.97l2.19,62.72,8.44-.29c.46-.02.8.09,1.04.31.24.22.37.56.39,1.02l.07,2.06c.01.39-.09.71-.32.95-.22.24-.56.36-1.01.38l-12.17.43c-.46.02-.81-.09-1.04-.31Z" style="fill: #fff;"/>
          <path d="M176.12,377.72c-.24-.22-.36-.53-.37-.92l-2.31-66.16c-.02-.46.08-.79.31-.99.22-.2.56-.31,1.02-.33l2.35-.08c.46-.01.8.07,1.04.26.23.19.36.51.38.97l2.31,66.16c.01.39-.09.71-.31.94-.22.24-.56.37-1.02.38l-2.35.08c-.46.01-.81-.09-1.04-.31Z" style="fill: #fff;"/>
          <path d="M188.93,375.85c-1.53-1.65-2.36-4.18-2.48-7.58l-.5-14.43c-.01-.46.09-.8.31-1.04.22-.24.53-.36.92-.38l2.55-.09c.33-.01.62.09.9.31.27.22.42.56.43,1.02l.51,14.53c.07,2.03.44,3.47,1.13,4.33.68.86,1.81,1.26,3.38,1.21,1.57-.06,2.69-.53,3.34-1.44.65-.91.94-2.38.87-4.4l-.52-14.92c-.06-1.76-.45-3.08-1.16-3.94-.72-.86-2.08-1.75-4.07-2.66l-2.39-.9c-2.33-.97-4-2.14-5.04-3.51-1.03-1.37-1.59-3.24-1.67-5.59l-.62-17.67c-.12-3.4.51-5.99,1.89-7.78,1.38-1.78,3.74-2.74,7.07-2.85,3.34-.12,5.79.68,7.36,2.39,1.57,1.72,2.41,4.24,2.53,7.58l.59,16.88c.01.33-.09.63-.31.9-.22.27-.56.41-1.02.43l-2.46.09c-.39.01-.71-.11-.95-.36-.24-.25-.37-.54-.38-.87l-.59-16.98c-.07-2.09-.47-3.56-1.18-4.38-.71-.83-1.86-1.21-3.43-1.16-1.51.05-2.61.52-3.29,1.39-.69.88-1,2.36-.92,4.46l.59,16.88c.06,1.83.45,3.14,1.17,3.94.71.8,2.1,1.65,4.16,2.56l2.4,1c2.39.9,4.1,2.03,5.13,3.41,1.03,1.37,1.59,3.24,1.67,5.59l.55,15.81c.12,3.34-.53,5.9-1.94,7.68-1.42,1.79-3.82,2.74-7.22,2.86-3.34.12-5.77-.65-7.3-2.3Z" style="fill: #fff;"/>
          <path d="M212.04,376.46c-.24-.22-.36-.53-.37-.92l-2.31-66.16c-.02-.46.08-.79.31-.99.22-.21.56-.31,1.02-.33l12.46-.43c.46-.02.8.07,1.04.26.24.19.36.51.38.97l.07,2.06c.02.46-.08.8-.3,1.04-.22.24-.56.36-1.02.38l-8.74.3,2.07,59.29,8.74-.3c.46-.02.8.09,1.04.31.24.22.36.56.38,1.02l.07,2.06c.01.39-.09.71-.31.95-.22.24-.56.36-1.02.38l-12.46.43c-.46.02-.81-.09-1.04-.31ZM212.92,338.25l9.92-.35c.46-.01.8.1,1.04.36.24.26.36.61.38,1.07l.07,1.96c.01.39-.09.73-.31.99-.22.27-.56.42-1.02.43l-9.92.35-.17-4.81ZM214.66,303.6c-.14-.26-.12-.59.06-.99l3.65-7.89c.31-.6.75-.91,1.34-.93l2.07-.07c.52-.02.87.12,1.05.41.17.29.17.63-.02,1.03l-4.05,7.81c-.12.33-.29.57-.51.7-.23.14-.5.22-.83.23l-1.77.06c-.53.02-.86-.1-1-.36Z" style="fill: #fff;"/>
          <path d="M231.28,375.79c-.24-.22-.36-.53-.37-.92l-2.31-66.16c-.02-.46.08-.79.31-.99.22-.21.56-.31,1.02-.33l12.46-.43c.46-.02.8.07,1.04.26.24.19.36.51.38.97l.07,2.06c.02.46-.08.8-.3,1.04-.22.24-.56.36-1.02.38l-8.74.3,2.07,59.29,8.74-.3c.46-.02.8.09,1.04.31.24.22.36.56.38,1.02l.07,2.06c.01.39-.09.71-.31.95-.22.24-.56.36-1.02.38l-12.46.43c-.46.02-.81-.09-1.04-.31ZM232.16,337.58l9.91-.35c.46-.01.8.1,1.04.36.24.26.36.61.38,1.07l.07,1.96c.01.39-.09.73-.31.99-.22.27-.56.42-1.02.43l-9.91.35-.17-4.81Z" style="fill: #fff;"/>
          <path d="M258.61,354.94l-2.24-47.29c-.01-.39.07-.69.26-.89.19-.2.48-.31.87-.33l2.75-.1c.39-.01.7.07.94.26.23.19.36.48.37.87l.96,47.34c.03.85-.34,1.29-1.13,1.31l-1.47.05c-.79.03-1.23-.38-1.32-1.23ZM259.11,374.82c-.27-.22-.41-.53-.42-.92l-.21-5.79c-.01-.46.1-.81.36-1.05.25-.24.58-.36.97-.37l2.46-.09c.52-.02.88.08,1.09.3.21.22.32.56.33,1.02l.21,5.79c.01.39-.08.71-.27.94-.19.24-.54.36-1.06.38l-2.46.09c-.39.01-.73-.09-1-.31Z" style="fill: #fff;"/>
        </g>
        <g>
          <g>
            <path d="M135.92,49.57c0-9.3,7.56-16.86,16.86-16.86s16.86,7.56,16.86,16.86-7.56,16.86-16.86,16.86-16.86-7.56-16.86-16.86M155.27,93.06v-23.03c10.21-1.23,18.15-9.93,18.15-20.46,0-11.38-9.26-20.63-20.63-20.63s-20.63,9.26-20.63,20.63,8.57,19.9,19.35,20.56v22.93c.62-.1,1.24-.17,1.88-.17s1.27.07,1.88.17" style="fill: #2897d5;"/>
            <path d="M188.88,57.29c6.53,0,11.83,5.31,11.83,11.83s-5.3,11.83-11.83,11.83-11.82-5.3-11.82-11.83,5.3-11.83,11.82-11.83M179.28,81.39c2.65,2.08,5.98,3.33,9.6,3.33,8.61,0,15.61-7,15.61-15.6s-7-15.6-15.61-15.6-15.6,7-15.6,15.6c0,3.62,1.25,6.95,3.33,9.6l-16.46,16.46c1.01.77,1.88,1.7,2.58,2.76l16.55-16.55Z" style="fill: #d60b52;"/>
            <path d="M222.63,101.44c0,2.41-.58,4.68-1.58,6.71h4.11c.79-2.09,1.24-4.34,1.24-6.71,0-10.49-8.54-19.03-19.03-19.03s-19.02,8.54-19.02,19.03c0,.25.03.49.04.73h-24.01c.11.62.17,1.24.17,1.89s-.07,1.27-.17,1.89h24.54c.18.75.41,1.49.68,2.2h4.11c-1-2.03-1.58-4.3-1.58-6.71,0-8.41,6.84-15.25,15.25-15.25s15.25,6.84,15.25,15.25" style="fill: #a3195b;"/>
            <path d="M115.19,103.5c0,1.64-.32,3.21-.9,4.65h3.99c.27-.89.46-1.82.56-2.77h23.45c-.05-.43-.09-.88-.09-1.32,0-.84.1-1.66.28-2.45h-23.65c-.94-8.16-7.88-14.52-16.29-14.52-9.05,0-16.41,7.36-16.41,16.41,0,1.62.24,3.18.68,4.65h3.99c-.57-1.44-.9-3.01-.9-4.65,0-6.97,5.67-12.63,12.64-12.63s12.63,5.66,12.63,12.63" style="fill: #f39200;"/>
            <path d="M113.7,80.95c-8.52,0-15.45-6.93-15.45-15.45s6.93-15.45,15.45-15.45,15.45,6.93,15.45,15.45-6.93,15.45-15.45,15.45M143.83,98.29c.66-1.09,1.49-2.06,2.47-2.87l-17.74-17.74c2.73-3.32,4.37-7.57,4.37-12.19,0-10.6-8.63-19.22-19.23-19.22s-19.22,8.62-19.22,19.22,8.62,19.23,19.22,19.23c4.62,0,8.87-1.64,12.19-4.37l17.94,17.94Z" style="fill: #95c11f;"/>
          </g>
          <g>
            <g>
              <path d="M84,168.49c-.25-.59-.61-1.09-1.05-1.5-.45-.42-.99-.74-1.59-.99-.62-.24-1.27-.36-1.96-.36h-5.54v27.71h1.73v-11.85h3.81c.69,0,1.35-.14,1.96-.4.61-.26,1.14-.63,1.59-1.07.45-.45.8-.98,1.05-1.57.25-.61.38-1.25.38-1.94v-6.09c0-.69-.13-1.33-.38-1.92ZM82.65,176.51c0,.44-.09.86-.26,1.27-.18.4-.4.74-.69,1.04-.28.29-.63.52-1.02.69-.4.18-.82.26-1.29.26h-3.81v-12.4h3.81c.91,0,1.67.29,2.3.87.63.58.96,1.3.96,2.18v6.09Z" style="fill: #1e1e1c;"/>
              <path d="M95.38,176.33c-.24-.57-.57-1.05-.99-1.46-.42-.41-.9-.72-1.46-.94s-1.15-.33-1.8-.33-1.25.12-1.81.33c-.55.21-1.04.53-1.46.94-.41.4-.74.89-.99,1.46s-.36,1.19-.36,1.89v.69h1.73v-.69c0-.81.25-1.49.76-2.04.51-.56,1.21-.83,2.12-.83s1.6.25,2.11.76c.51.51.76,1.21.76,2.11v3.22l-4.82,1.52c-1,.39-1.82,1.02-2.46,1.89-.64.87-.97,1.91-.97,3.14v2.39c0,.92.32,1.71.97,2.35.64.64,1.44.97,2.35.97.47,0,.98-.13,1.54-.38.57-.25,1.1-.54,1.61-.86.61-.37,1.19-.79,1.77-1.25v2.15h1.73v-15.14c0-.69-.12-1.32-.36-1.89ZM94.01,189.09c-.58.53-1.16,1-1.77,1.42-.51.37-1.05.7-1.61,1.01s-1.07.45-1.54.45c-.39,0-.75-.17-1.08-.51-.34-.33-.51-.69-.51-1.08v-2.39c0-.76.21-1.45.61-2.06.41-.62,1.02-1.07,1.82-1.41l4.09-1.28v5.86Z" style="fill: #1e1e1c;"/>
              <path d="M107.18,174.05l-3.29,17.91h-.56c-.07,0-.12-.03-.16-.09-.04-.06-.08-.11-.12-.16-.05-.07-.07-.14-.07-.21l-3.26-17.49h-1.73l3.39,18.5c.05.29.21.57.51.81.28.24.62.36.99.36h.69l-.94,5.13h1.73l4.54-24.77h-1.73Z" style="fill: #1e1e1c;"/>
              <path d="M120.62,178.91v-.69c0-.64-.13-1.25-.37-1.8-.24-.56-.57-1.05-.99-1.46-.41-.42-.9-.75-1.46-.99-.55-.24-1.15-.37-1.8-.37h-.76c-.64,0-1.25.13-1.81.37-.55.23-1.04.57-1.46.99s-.74.9-.99,1.46c-.23.55-.36,1.15-.36,1.8v.69c0,.69.21,1.34.64,1.94.42.6.91,1.12,1.44,1.59.6.53,1.29,1.02,2.08,1.46.76.48,1.44.96,2.04,1.42.53.39,1.01.83,1.42,1.3.42.47.63.91.63,1.3v1.18c0,.8-.27,1.48-.83,2.04s-1.23.83-2.04.83h-.76c-.81,0-1.49-.27-2.04-.83-.56-.56-.83-1.24-.83-2.04v-3.09h-1.74v3.09c0,.62.13,1.21.36,1.78.24.57.58,1.05.99,1.47.42.41.91.74,1.46.99.56.24,1.16.36,1.81.36h.76c.64,0,1.25-.12,1.8-.36.56-.24,1.05-.58,1.46-.99.42-.42.74-.91.99-1.47.24-.57.37-1.16.37-1.78v-1.18c0-.69-.22-1.35-.66-1.97-.44-.63-.92-1.17-1.46-1.63-.63-.56-1.34-1.06-2.15-1.52-.71-.46-1.37-.91-1.97-1.35-.51-.39-.97-.82-1.39-1.27-.41-.45-.62-.87-.62-1.26v-.69c0-.81.27-1.49.83-2.04.55-.56,1.23-.83,2.04-.83h.76c.81,0,1.48.27,2.04.83.56.55.83,1.23.83,2.04v.69h1.74Z" style="fill: #1e1e1c;"/>
              <path d="M137.69,166.88v7.7c-.32-.25-.73-.49-1.23-.69-.5-.21-1.05-.31-1.65-.31h-.76c-.64,0-1.24.12-1.8.36s-1.04.57-1.46.99c-.41.42-.74.91-.99,1.47-.24.57-.36,1.16-.36,1.78v12.2c0,.92.32,1.71.97,2.35s1.44.97,2.35.97c.47,0,.98-.13,1.54-.38.57-.25,1.1-.54,1.61-.86.6-.37,1.19-.79,1.77-1.25v2.15h1.73v-26.47h-1.73ZM137.69,189.09c-.58.53-1.17,1-1.77,1.42-.51.37-1.05.7-1.61,1.01-.57.3-1.07.45-1.54.45-.39,0-.75-.15-1.08-.43-.34-.29-.51-.68-.51-1.16v-12.2c0-.8.28-1.48.83-2.04.56-.56,1.24-.83,2.04-.83h.76c.4,0,.77.07,1.11.21.35.15.65.33.92.58s.47.53.63.87c.15.33.22.68.22,1.05v11.09Z" style="fill: #1e1e1c;"/>
              <path d="M153.21,182.68v-4.46c0-.64-.13-1.25-.37-1.8-.23-.56-.57-1.05-.99-1.46-.41-.42-.9-.75-1.46-.99-.55-.24-1.15-.37-1.8-.37h-.76c-.64,0-1.25.13-1.8.37-.56.23-1.05.57-1.46.99-.42.41-.75.9-.99,1.46-.24.55-.37,1.15-.37,1.8v10.88c0,.64.13,1.24.37,1.8.23.56.57,1.04.99,1.46.41.41.9.74,1.46.99.55.24,1.15.36,1.8.36h.76c.64,0,1.25-.12,1.8-.36.56-.24,1.05-.58,1.46-.99.42-.42.75-.9.99-1.46.24-.56.37-1.15.37-1.8v-2.5h-1.74v2.5c0,.8-.27,1.48-.83,2.04s-1.23.83-2.04.83h-.76c-.81,0-1.49-.27-2.04-.83-.56-.56-.83-1.24-.83-2.04v-6.42h8.24ZM144.96,178.21c0-.81.27-1.49.83-2.04.55-.56,1.23-.83,2.04-.83h.76c.81,0,1.48.27,2.04.83.56.55.83,1.23.83,2.04v2.77h-6.5v-2.77Z" style="fill: #1e1e1c;"/>
              <path d="M172.57,165.64l-4.75,25.87c-.02.07-.05.16-.09.27-.03.12-.12.18-.25.18h-.28c-.07,0-.12-.03-.16-.09-.03-.06-.07-.11-.12-.16-.05-.07-.07-.14-.07-.21l-4.82-25.87h-1.73l4.95,26.88c.04.29.21.57.5.81.29.24.62.36.99.36h1.18c.37,0,.69-.13.99-.38.28-.25.45-.52.5-.79l4.88-26.88h-1.73Z" style="fill: #1e1e1c;"/>
              <path d="M185.29,176.33c-.24-.57-.57-1.05-.99-1.46-.41-.41-.9-.72-1.46-.94-.55-.21-1.15-.33-1.8-.33s-1.25.12-1.81.33c-.55.21-1.04.53-1.46.94-.41.4-.74.89-.99,1.46-.23.57-.36,1.19-.36,1.89v.69h1.73v-.69c0-.81.25-1.49.76-2.04.52-.56,1.22-.83,2.12-.83s1.6.25,2.11.76.76,1.21.76,2.11v3.22l-4.82,1.52c-.99.39-1.81,1.02-2.46,1.89-.64.87-.97,1.91-.97,3.14v2.39c0,.92.32,1.71.97,2.35.65.64,1.44.97,2.36.97.46,0,.97-.13,1.53-.38.57-.25,1.1-.54,1.61-.86.61-.37,1.19-.79,1.77-1.25v2.15h1.73v-15.14c0-.69-.12-1.32-.36-1.89ZM183.92,189.09c-.58.53-1.16,1-1.77,1.42-.51.37-1.05.7-1.61,1.01s-1.07.45-1.53.45c-.4,0-.76-.17-1.09-.51-.33-.33-.51-.69-.51-1.08v-2.39c0-.76.21-1.45.62-2.06.4-.62,1.01-1.07,1.82-1.41l4.08-1.28v5.86Z" style="fill: #1e1e1c;"/>
              <path d="M198.64,174.58c-.64-.65-1.43-.98-2.35-.98-.46,0-.98.13-1.54.38-.57.25-1.1.55-1.61.87-.6.37-1.18.78-1.76,1.25v-2.15h-1.74v19.4h1.74v-15.18c.58-.53,1.16-1,1.76-1.42.51-.37,1.05-.69,1.61-.99.57-.29,1.08-.43,1.54-.43.39,0,.76.14,1.09.43.33.29.5.67.5,1.16v16.42h1.74v-16.42c0-.93-.33-1.71-.98-2.35Z" style="fill: #1e1e1c;"/>
              <path d="M212.61,174.58c-.65-.65-1.44-.98-2.36-.98-.46,0-.98.13-1.53.38-.57.25-1.1.55-1.61.87-.61.37-1.19.78-1.77,1.25v-2.15h-1.74v19.4h1.74v-15.18c.58-.53,1.16-1,1.77-1.42.51-.37,1.05-.69,1.61-.99.56-.29,1.07-.43,1.53-.43.4,0,.76.14,1.09.43.33.29.51.67.51,1.16v16.42h1.73v-16.42c0-.93-.32-1.71-.97-2.35Z" style="fill: #1e1e1c;"/>
              <path d="M227.19,182.68v-4.46c0-.64-.13-1.25-.37-1.8-.24-.56-.57-1.05-.99-1.46-.41-.42-.9-.75-1.46-.99-.55-.24-1.15-.37-1.8-.37h-.76c-.64,0-1.25.13-1.81.37-.55.23-1.04.57-1.46.99-.41.41-.74.9-.99,1.46-.23.55-.36,1.15-.36,1.8v10.88c0,.64.13,1.24.36,1.8.24.56.58,1.04.99,1.46.42.41.91.74,1.46.99.56.24,1.16.36,1.81.36h.76c.64,0,1.25-.12,1.8-.36.56-.24,1.05-.58,1.46-.99.42-.42.74-.9.99-1.46s.37-1.15.37-1.8v-2.5h-1.74v2.5c0,.8-.27,1.48-.83,2.04s-1.23.83-2.04.83h-.76c-.81,0-1.49-.27-2.04-.83-.56-.56-.84-1.24-.84-2.04v-6.42h8.25ZM218.94,178.21c0-.81.28-1.49.84-2.04.55-.56,1.23-.83,2.04-.83h.76c.81,0,1.48.27,2.04.83.56.55.83,1.23.83,2.04v2.77h-6.51v-2.77Z" style="fill: #1e1e1c;"/>
              <path d="M239.76,178.91v-.69c0-.64-.13-1.25-.36-1.8-.24-.56-.58-1.05-.99-1.46s-.91-.75-1.46-.99c-.56-.24-1.16-.37-1.81-.37h-.76c-.64,0-1.25.13-1.8.37-.56.23-1.05.57-1.46.99-.42.41-.74.9-.99,1.46-.24.55-.36,1.15-.36,1.8v.69c0,.69.21,1.34.63,1.94.43.6.91,1.12,1.44,1.59.61.53,1.3,1.02,2.08,1.46.76.48,1.45.96,2.04,1.42.54.39,1.01.83,1.43,1.3.41.47.63.91.63,1.3v1.18c0,.8-.28,1.48-.84,2.04-.55.56-1.23.83-2.04.83h-.76c-.81,0-1.48-.27-2.04-.83-.56-.56-.83-1.24-.83-2.04v-3.09h-1.73v3.09c0,.62.12,1.21.36,1.78.24.57.57,1.05.99,1.47s.9.74,1.46.99c.55.24,1.15.36,1.8.36h.76c.64,0,1.25-.12,1.81-.36.55-.24,1.04-.58,1.46-.99.41-.42.74-.91.99-1.47.23-.57.36-1.16.36-1.78v-1.18c0-.69-.22-1.35-.66-1.97-.44-.63-.92-1.17-1.46-1.63-.62-.56-1.34-1.06-2.14-1.52-.72-.46-1.38-.91-1.97-1.35-.52-.39-.98-.82-1.39-1.27-.42-.45-.63-.87-.63-1.26v-.69c0-.81.27-1.49.83-2.04.56-.56,1.23-.83,2.04-.83h.76c.81,0,1.49.27,2.04.83.56.55.84,1.23.84,2.04v.69h1.73Z" style="fill: #1e1e1c;"/>
            </g>
            <g>
              <path d="M76.22,119.51h-4.76l-4.81,30.39-4.71-30.39h-4.81l-1.36,35.24h2.2l1.32-33.03h.88l5.38,32.58h2.2l5.42-32.58h.88l1.28,33.03h2.2l-1.32-35.24Z" style="fill: #1e1e1c;"/>
              <path d="M87.19,152.79c-.36-.14-.67-.29-.95-.49-.28-.19-.52-.41-.71-.65-.19-.25-.28-.48-.28-.68v-20.87h-2.2v20.87c0,.59.15,1.13.46,1.65.3.51.71.96,1.21,1.34.5.38,1.05.68,1.65.91.61.21,1.19.33,1.79.33v-2.21c-.29,0-.62-.07-.97-.2ZM83.05,121.06v4.67h2.2v-4.67h-2.2Z" style="fill: #1e1e1c;"/>
              <path d="M103.26,136.38v-.88c0-.82-.16-1.58-.46-2.29-.31-.71-.73-1.33-1.26-1.86s-1.14-.95-1.85-1.25c-.7-.31-1.47-.47-2.29-.47h-.98c-.82,0-1.58.16-2.29.47-.7.3-1.32.72-1.86,1.25-.53.53-.94,1.14-1.25,1.86-.31.7-.46,1.47-.46,2.29v.88c0,.88.26,1.71.81,2.47.55.76,1.15,1.44,1.83,2.02.76.67,1.64,1.29,2.65,1.86.97.62,1.84,1.21,2.6,1.8.67.51,1.27,1.05,1.81,1.66.53.6.79,1.15.79,1.65v1.49c0,1.03-.35,1.89-1.05,2.6-.71.7-1.57,1.05-2.6,1.05h-.98c-1.03,0-1.89-.35-2.6-1.05-.7-.7-1.05-1.57-1.05-2.6v-3.92h-2.2v3.92c0,.79.15,1.55.46,2.27.31.72.72,1.35,1.25,1.88.54.53,1.15.95,1.86,1.25.7.31,1.47.47,2.29.47h.98c.82,0,1.58-.16,2.29-.47.7-.3,1.32-.72,1.85-1.25.53-.53.95-1.15,1.26-1.88.3-.71.46-1.47.46-2.27v-1.49c0-.89-.27-1.72-.83-2.51-.57-.8-1.18-1.48-1.86-2.07-.79-.7-1.7-1.36-2.72-1.94-.92-.59-1.75-1.15-2.51-1.72-.65-.5-1.24-1.03-1.77-1.6-.53-.58-.79-1.11-.79-1.61v-.88c0-1.03.35-1.89,1.05-2.6s1.57-1.05,2.6-1.05h.98c1.03,0,1.89.35,2.6,1.05.7.7,1.05,1.57,1.05,2.6v.88h2.2Z" style="fill: #1e1e1c;"/>
              <path d="M119.46,136.38v-.88c0-.82-.15-1.58-.46-2.29-.3-.71-.72-1.33-1.25-1.86-.53-.53-1.15-.95-1.86-1.25-.7-.31-1.47-.47-2.29-.47h-.97c-.83,0-1.59.16-2.3.47-.7.3-1.32.72-1.85,1.25-.53.53-.95,1.14-1.26,1.86-.3.7-.46,1.47-.46,2.29v.88c0,.88.27,1.71.81,2.47.55.76,1.15,1.44,1.83,2.02.77.67,1.65,1.29,2.65,1.86.97.62,1.84,1.21,2.6,1.8.67.51,1.28,1.05,1.81,1.66.53.6.79,1.15.79,1.65v1.49c0,1.03-.35,1.89-1.05,2.6-.7.7-1.57,1.05-2.6,1.05h-.97c-1.04,0-1.89-.35-2.6-1.05-.71-.7-1.06-1.57-1.06-2.6v-3.92h-2.2v3.92c0,.79.16,1.55.46,2.27.31.72.73,1.35,1.26,1.88s1.14.95,1.85,1.25c.7.31,1.47.47,2.3.47h.97c.82,0,1.58-.16,2.29-.47.7-.3,1.33-.72,1.86-1.25s.95-1.15,1.25-1.88c.31-.71.46-1.47.46-2.27v-1.49c0-.89-.27-1.72-.83-2.51-.56-.8-1.17-1.48-1.86-2.07-.79-.7-1.7-1.36-2.73-1.94-.91-.59-1.75-1.15-2.51-1.72-.64-.5-1.23-1.03-1.76-1.6-.54-.58-.8-1.11-.8-1.61v-.88c0-1.03.35-1.89,1.06-2.6.7-.7,1.56-1.05,2.6-1.05h.97c1.03,0,1.89.35,2.6,1.05.7.7,1.05,1.57,1.05,2.6v.88h2.2Z" style="fill: #1e1e1c;"/>
              <path d="M128.23,152.79c-.35-.14-.67-.29-.95-.49-.28-.19-.52-.41-.7-.65-.2-.25-.29-.48-.29-.68v-20.87h-2.2v20.87c0,.59.16,1.13.46,1.65.31.51.71.96,1.21,1.34.5.38,1.05.68,1.65.91.61.21,1.2.33,1.79.33v-2.21c-.29,0-.62-.07-.97-.2ZM124.09,121.06v4.67h2.2v-4.67h-2.2Z" style="fill: #1e1e1c;"/>
              <path d="M144.28,133.22c-.3-.71-.72-1.33-1.25-1.86-.53-.53-1.14-.95-1.86-1.25-.7-.31-1.47-.47-2.29-.47h-.97c-.82,0-1.59.16-2.3.47-.7.3-1.32.72-1.85,1.25-.53.53-.95,1.14-1.26,1.86-.3.7-.46,1.47-.46,2.29v13.83c0,.79.16,1.55.46,2.27.31.72.73,1.35,1.26,1.88s1.14.95,1.85,1.25c.7.31,1.47.47,2.3.47h.97c.82,0,1.58-.16,2.29-.47.71-.3,1.33-.72,1.86-1.25s.95-1.15,1.25-1.88c.31-.71.47-1.47.47-2.27v-13.83c0-.82-.16-1.58-.47-2.29ZM142.54,149.33c0,1.03-.35,1.89-1.05,2.6-.7.7-1.57,1.05-2.6,1.05h-.97c-1.04,0-1.89-.35-2.6-1.05-.7-.7-1.05-1.57-1.05-2.6v-13.83c0-1.03.35-1.89,1.05-2.6s1.56-1.05,2.6-1.05h.97c1.03,0,1.89.35,2.6,1.05.7.7,1.05,1.57,1.05,2.6v13.83Z" style="fill: #1e1e1c;"/>
              <path d="M161.04,130.88c-.82-.82-1.82-1.24-3-1.24-.59,0-1.24.17-1.95.49-.72.32-1.41.69-2.05,1.1-.76.47-1.51,1-2.25,1.58v-2.73h-2.2v24.66h2.2v-19.29c.73-.68,1.48-1.28,2.25-1.81.64-.47,1.33-.89,2.05-1.26.71-.36,1.37-.55,1.95-.55.5,0,.97.19,1.39.55.43.37.64.86.64,1.47v20.88h2.2v-20.88c0-1.17-.41-2.17-1.23-2.99Z" style="fill: #1e1e1c;"/>
              <path d="M176.14,152.54v-33.03h-2.15v35.24h10.87v-2.21h-8.72Z" style="fill: #1e1e1c;"/>
              <path d="M199.29,133.22c-.31-.71-.73-1.33-1.26-1.86-.53-.53-1.14-.95-1.85-1.25-.7-.31-1.47-.47-2.3-.47h-.97c-.82,0-1.58.16-2.29.47-.7.3-1.32.72-1.86,1.25-.53.53-.95,1.14-1.25,1.86-.31.7-.46,1.47-.46,2.29v13.83c0,.79.15,1.55.46,2.27.3.72.72,1.35,1.25,1.88.54.53,1.15.95,1.86,1.25.7.31,1.47.47,2.29.47h.97c.83,0,1.59-.16,2.3-.47.7-.3,1.32-.72,1.85-1.25s.95-1.15,1.26-1.88c.3-.71.46-1.47.46-2.27v-13.83c0-.82-.16-1.58-.46-2.29ZM197.55,149.33c0,1.03-.35,1.89-1.05,2.6-.71.7-1.57,1.05-2.61,1.05h-.97c-1.03,0-1.89-.35-2.6-1.05-.7-.7-1.05-1.57-1.05-2.6v-13.83c0-1.03.35-1.89,1.05-2.6s1.57-1.05,2.6-1.05h.97c1.04,0,1.89.35,2.61,1.05.7.7,1.05,1.57,1.05,2.6v13.83Z" style="fill: #1e1e1c;"/>
              <path d="M216.84,138.8v-3.3c0-.82-.16-1.58-.47-2.29-.3-.71-.72-1.33-1.25-1.86-.53-.53-1.15-.95-1.86-1.25-.7-.31-1.47-.47-2.29-.47h-.97c-.83,0-1.59.16-2.3.47-.7.3-1.32.72-1.85,1.25-.53.53-.95,1.14-1.26,1.86-.3.7-.46,1.47-.46,2.29v13.83c0,.79.16,1.55.46,2.27.31.72.73,1.35,1.26,1.88s1.14.95,1.85,1.25c.7.31,1.47.47,2.3.47h.97c.82,0,1.58-.16,2.29-.47.7-.3,1.33-.72,1.86-1.25s.95-1.15,1.25-1.88c.31-.71.47-1.47.47-2.27v-3.17h-2.21v3.17c0,1.03-.35,1.89-1.05,2.6s-1.57,1.05-2.6,1.05h-.97c-1.04,0-1.89-.35-2.6-1.05-.7-.7-1.06-1.57-1.06-2.6v-13.83c0-1.03.36-1.89,1.06-2.6s1.56-1.05,2.6-1.05h.97c1.03,0,1.89.35,2.6,1.05.7.7,1.05,1.57,1.05,2.6v3.3h2.21Z" style="fill: #1e1e1c;"/>
              <path d="M231.48,133.1c-.31-.71-.73-1.33-1.26-1.85-.53-.52-1.14-.91-1.85-1.19-.7-.27-1.47-.42-2.3-.42s-1.58.15-2.29.42c-.7.28-1.32.67-1.85,1.19-.54.52-.95,1.13-1.26,1.85-.3.72-.46,1.52-.46,2.4v.88h2.2v-.88c0-1.03.32-1.89.97-2.6.64-.7,1.54-1.05,2.69-1.05s2.04.32,2.69.97c.65.64.98,1.54.98,2.69v4.09l-6.12,1.94c-1.26.5-2.3,1.3-3.13,2.4-.82,1.09-1.24,2.42-1.24,3.98v3.04c0,1.17.42,2.17,1.24,2.99.82.83,1.82,1.24,2.99,1.24.59,0,1.24-.17,1.96-.49.72-.32,1.41-.69,2.05-1.1.76-.47,1.5-1,2.25-1.58v2.73h2.2v-19.25c0-.88-.16-1.68-.46-2.4ZM229.74,149.33c-.74.67-1.48,1.28-2.25,1.81-.64.47-1.33.9-2.05,1.28-.72.38-1.38.57-1.96.57-.5,0-.96-.21-1.39-.63-.42-.43-.63-.89-.63-1.39v-3.04c0-.98.25-1.85.77-2.63.51-.77,1.28-1.37,2.31-1.78l5.2-1.63v7.44Z" style="fill: #1e1e1c;"/>
              <path d="M241.36,152.79c-.35-.14-.66-.29-.95-.49-.28-.19-.52-.41-.7-.65-.2-.25-.28-.48-.28-.68v-29.86h-2.21v29.86c0,.59.16,1.13.46,1.65.31.51.71.96,1.22,1.34.5.38,1.05.68,1.65.91.6.21,1.19.33,1.78.33v-2.21c-.29,0-.62-.07-.97-.2Z" style="fill: #1e1e1c;"/>
              <path d="M257.88,141.19v-5.68c0-.82-.16-1.58-.47-2.29-.3-.71-.72-1.33-1.25-1.86s-1.14-.95-1.85-1.25c-.71-.31-1.47-.47-2.3-.47h-.97c-.82,0-1.58.16-2.3.47-.7.3-1.32.72-1.85,1.25-.53.53-.95,1.14-1.25,1.86-.31.7-.47,1.47-.47,2.29v13.83c0,.82.16,1.58.47,2.29.3.71.72,1.33,1.25,1.86.53.53,1.14.95,1.85,1.25.71.31,1.47.47,2.3.47h.97c.82,0,1.58-.16,2.3-.47.7-.3,1.32-.72,1.85-1.25.53-.53.95-1.14,1.25-1.86.31-.7.47-1.47.47-2.29v-3.17h-2.21v3.17c0,1.03-.35,1.89-1.05,2.6s-1.57,1.05-2.6,1.05h-.97c-1.03,0-1.89-.35-2.6-1.05-.7-.7-1.05-1.57-1.05-2.6v-8.15h10.48ZM247.4,135.5c0-1.03.35-1.89,1.05-2.6s1.57-1.05,2.6-1.05h.97c1.03,0,1.89.35,2.6,1.05.7.7,1.05,1.57,1.05,2.6v3.53h-8.27v-3.53Z" style="fill: #1e1e1c;"/>
            </g>
            <path d="M159.46,215.06l-1.98,4.62h3.98l-1.99-4.62ZM159.46,215.06l-1.98,4.62h3.98l-1.99-4.62ZM159.46,215.06l-1.98,4.62h3.98l-1.99-4.62ZM159.46,215.06l-1.98,4.62h3.98l-1.99-4.62ZM133.18,214.86c-.35-.27-.9-.41-1.65-.41h-2.44v3.28h2.44c.74,0,1.29-.14,1.64-.41.35-.27.53-.68.53-1.24s-.18-.96-.52-1.22ZM159.46,215.06l-1.98,4.62h3.98l-1.99-4.62ZM159.46,215.06l-1.98,4.62h3.98l-1.99-4.62ZM133.18,214.86c-.35-.27-.9-.41-1.65-.41h-2.44v3.28h2.44c.74,0,1.29-.14,1.64-.41.35-.27.53-.68.53-1.24s-.18-.96-.52-1.22ZM108.54,206.58v23.38h95.47v-23.38h-95.47ZM124.33,222.95c-.65.53-1.56.78-2.72.78h-4.9v-10.8h4.75c1.11,0,1.99.25,2.63.75.63.5.96,1.19.96,2.07,0,.57-.15,1.06-.45,1.48-.29.42-.71.72-1.23.92.63.18,1.1.5,1.45.95.34.46.51,1.03.51,1.69,0,.92-.32,1.64-.98,2.16ZM134,223.74l-1.38-3.59c-.13-.33-.31-.57-.57-.69-.25-.14-.58-.21-.99-.21h-1.95v4.49h-1.94v-10.8h4.63c1.22,0,2.16.27,2.79.8.63.54.96,1.31.96,2.31,0,.71-.2,1.33-.58,1.83-.37.5-.91.86-1.61,1.06.63.14,1.09.58,1.38,1.34l1.33,3.46h-2.07ZM145.04,214.49h-5.31v2.99h5v1.54h-5v3.17h5.31v1.54h-7.22v-10.8h7.22v1.55ZM151.37,223.74h-1.97v-9.19h-3.52v-1.61h9.02v1.61h-3.54v9.19ZM163.18,223.74l-1.07-2.53h-5.28l-1.09,2.53h-1.97l4.88-10.8h1.6l4.89,10.8h-1.95ZM174.99,223.09c-.5.23-1.09.43-1.8.58-.69.14-1.41.21-2.14.21-1.11,0-2.08-.21-2.9-.66-.81-.45-1.45-1.08-1.88-1.91-.44-.83-.65-1.82-.65-2.97s.21-2.12.65-2.95c.43-.83,1.05-1.47,1.86-1.91.81-.44,1.75-.66,2.83-.66.76,0,1.47.12,2.13.33.66.22,1.22.54,1.66.95l-.66,1.43c-.51-.4-1.01-.68-1.48-.85-.49-.18-1.02-.26-1.59-.26-1.11,0-1.96.33-2.53,1.01-.58.66-.86,1.64-.86,2.93s.29,2.32.88,2.99c.59.67,1.47,1.02,2.63,1.02.71,0,1.41-.1,2.09-.29v-2.72h-2.33v-1.42h4.1v5.2ZM186.29,223.74h-1.46l-5.83-7.57v7.57h-1.82v-10.8h1.46l5.81,7.56v-7.56h1.84v10.8ZM195.86,214.49h-5.3v2.99h4.99v1.54h-4.99v3.17h5.3v1.54h-7.22v-10.8h7.22v1.55ZM157.48,219.68h3.98l-1.99-4.62-1.98,4.62ZM133.18,214.86c-.35-.27-.9-.41-1.65-.41h-2.44v3.28h2.44c.74,0,1.29-.14,1.64-.41.35-.27.53-.68.53-1.24s-.18-.96-.52-1.22ZM121.39,219.02h-2.77v3.2h2.77c.71,0,1.23-.13,1.55-.38.33-.25.5-.65.5-1.2s-.17-.97-.5-1.22c-.32-.26-.84-.4-1.55-.4ZM123.16,215.97c0-.51-.17-.89-.5-1.14-.33-.25-.85-.38-1.53-.38h-2.52v3.04h2.52c1.36,0,2.03-.51,2.03-1.51ZM159.46,215.06l-1.98,4.62h3.98l-1.99-4.62ZM159.46,215.06l-1.98,4.62h3.98l-1.99-4.62ZM159.46,215.06l-1.98,4.62h3.98l-1.99-4.62ZM159.46,215.06l-1.98,4.62h3.98l-1.99-4.62Z" style="fill: #2f93d0;"/>
          </g>
        </g>
        <g>
          <path d="M62.08,408.43l.05,1.42-8.42.3-.61-17.49,8.15-.28.05,1.42-6.6.23.22,6.47,6.17-.21.05,1.42-6.17.21.24,6.75,6.87-.24Z" style="fill: #fff;"/>
          <path d="M64.2,392.27l1.6-.06,5.07,10.03c.65,1.23,1.62,3.27,2.05,4.26l.07-.03c-.12-1.28-.33-3.54-.38-5.04l-.33-9.45,1.55-.05.61,17.49-1.6.06-5.14-10.1c-.59-1.16-1.56-3.32-1.92-4.18l-.08.03c.1,1.32.24,3.32.29,4.69l.34,9.8-1.55.05-.61-17.49Z" style="fill: #fff;"/>
          <path d="M77.42,404.26l-.26-7.42c-.12-3.45,1.66-5.34,4.54-5.44,2.83-.1,4.76,1.61,5,4.83l-1.5.05c-.21-2.42-1.5-3.5-3.45-3.43-1.99.07-3.17,1.33-3.08,3.96l.26,7.4c.09,2.62,1.51,3.8,3.48,3.73,2-.07,3.33-1.34,3.25-3.72l-.11-3.12-3.4.12-.05-1.4,4.87-.17.16,4.52c.11,3.17-1.82,5.12-4.67,5.22-2.85.1-4.92-1.71-5.04-5.13Z" style="fill: #fff;"/>
          <path d="M96.65,404.54l-5.55.19-.88,4.14-1.65.06,3.99-17.65,1.7-.06,5.21,17.33-1.65.06-1.17-4.06ZM96.25,403.16l-2.05-7.19c-.31-1.06-.6-2.31-.7-2.73h-.05c-.06.43-.27,1.69-.5,2.77l-1.55,7.31,4.85-.17Z" style="fill: #fff;"/>
          <path d="M100.43,403.46l-.26-7.42c-.12-3.45,1.66-5.34,4.54-5.44,2.83-.1,4.76,1.61,5,4.83l-1.49.05c-.21-2.42-1.5-3.5-3.45-3.43-2,.07-3.17,1.33-3.08,3.96l.26,7.4c.09,2.62,1.51,3.8,3.48,3.73,2-.07,3.33-1.34,3.25-3.72l-.11-3.13-3.4.12-.05-1.4,4.87-.17.16,4.52c.11,3.17-1.82,5.12-4.67,5.22-2.85.1-4.92-1.71-5.03-5.13Z" style="fill: #fff;"/>
          <path d="M121.37,406.36l.05,1.42-8.42.3-.61-17.49,8.15-.28.05,1.42-6.6.23.22,6.47,6.17-.21.05,1.42-6.17.21.24,6.75,6.87-.24ZM115.93,388.73l-1.47.05,2.19-2.9,1.8-.06-2.52,2.92Z" style="fill: #fff;"/>
          <path d="M132.47,405.97l.05,1.42-8.42.3-.61-17.49,8.15-.28.05,1.42-6.6.23.22,6.47,6.17-.22.05,1.42-6.17.22.24,6.75,6.87-.24Z" style="fill: #fff;"/>
          <path d="M149.46,394.67c.12,3.6-1.58,5.56-4.8,5.67l-2.65.09.23,6.62-1.55.05-.61-17.49,4.2-.15c3.23-.11,5.07,1.78,5.19,5.2ZM147.91,394.72c-.09-2.6-1.24-3.86-3.59-3.78l-2.65.09.28,7.92,2.65-.09c2.35-.08,3.4-1.37,3.31-4.14Z" style="fill: #fff;"/>
          <path d="M151.77,401.29l-.23-6.65c-.12-3.52,1.67-5.81,4.83-5.92,3.14-.11,5.1,2.05,5.22,5.57l.23,6.65c.12,3.52-1.67,5.81-4.82,5.92-3.15.11-5.1-2.05-5.23-5.57ZM160.24,401l-.23-6.64c-.09-2.7-1.32-4.21-3.59-4.13-2.28.08-3.4,1.67-3.31,4.37l.23,6.65c.09,2.7,1.33,4.21,3.6,4.13,2.27-.08,3.39-1.67,3.29-4.37Z" style="fill: #fff;"/>
          <path d="M164.69,401.17l-.43-12.4,1.54-.05.43,12.4c.09,2.65,1.46,3.78,3.36,3.71s3.19-1.29,3.09-3.93l-.43-12.4,1.54-.06.43,12.4c.12,3.5-1.78,5.39-4.58,5.49-2.8.1-4.83-1.66-4.96-5.15Z" style="fill: #fff;"/>
          <path d="M180.98,398.87l-1.92.07.24,6.82-1.55.05-.61-17.49,4-.14c3.23-.11,5.07,1.7,5.18,4.95.11,3.05-1.28,5.05-3.66,5.58l4.54,6.77-1.8.06-4.42-6.68ZM179,397.49l2.42-.09c2.28-.08,3.41-1.54,3.32-4.12-.09-2.5-1.31-3.73-3.56-3.65l-2.45.09.27,7.77Z" style="fill: #fff;"/>
          <path d="M203.41,403.49l.05,1.42-8.42.3-.61-17.49,8.15-.28.05,1.42-6.6.23.22,6.47,6.17-.22.05,1.42-6.17.22.24,6.75,6.87-.24Z" style="fill: #fff;"/>
          <path d="M213.36,388.51l-3.85.13.56,16.04-1.55.06-.56-16.04-3.85.13-.05-1.45,9.25-.32.05,1.45Z" style="fill: #fff;"/>
          <path d="M227.96,399.96l-5.55.19-.88,4.14-1.65.06,3.99-17.65,1.7-.06,5.21,17.33-1.65.06-1.16-4.06ZM227.56,398.57l-2.05-7.19c-.31-1.06-.6-2.31-.7-2.73h-.05c-.06.43-.27,1.69-.5,2.77l-1.55,7.31,4.85-.17Z" style="fill: #fff;"/>
          <path d="M229.92,386.48l1.65-.06,3.01,10.85c.49,1.79.81,3.07,1.18,4.39h.1c.28-1.34.5-2.65.86-4.46l2.25-11.04,1.65-.06-3.84,17.65-1.8.06-5.06-17.34Z" style="fill: #fff;"/>
          <path d="M251.55,401.81l.05,1.42-8.42.3-.61-17.49,8.15-.28.05,1.42-6.6.23.22,6.47,6.17-.21.05,1.42-6.17.21.24,6.75,6.87-.24Z" style="fill: #fff;"/>
          <path d="M253.64,398.21l-.27-7.6c-.12-3.37,1.74-5.32,4.49-5.41,2.85-.1,4.74,1.64,5.03,4.88l-1.5.05c-.27-2.47-1.51-3.6-3.48-3.53-1.87.07-3.13,1.36-3.04,3.96l.27,7.6c.09,2.6,1.48,3.8,3.41,3.73,2-.07,3.11-1.33,3.27-3.77l1.5-.05c-.14,3.21-1.85,5.12-4.72,5.22-2.79.1-4.83-1.71-4.95-5.08Z" style="fill: #fff;"/>
          <path d="M62.48,433.5l.05,1.48-7.95.28-.61-17.49,1.55-.06.56,16.02,6.4-.22Z" style="fill: #fff;"/>
          <path d="M72.79,433.19l.05,1.42-8.42.29-.61-17.49,8.15-.28.05,1.42-6.6.23.23,6.47,6.17-.22.05,1.42-6.17.22.24,6.75,6.87-.24Z" style="fill: #fff;"/>
          <path d="M74.24,430.06l1.54-.05c.15,2.17,1.44,3.28,3.39,3.21,2.13-.07,3.13-1.43,3.06-3.33-.14-4.05-7.89-3.8-8.07-8.88-.09-2.4,1.67-4.34,4.37-4.43,2.75-.1,4.51,1.79,4.74,4.54l-1.55.05c-.18-2.19-1.42-3.15-3.09-3.1-1.9.07-2.96,1.2-2.9,2.88.14,4.05,7.88,3.63,8.07,8.88.08,2.37-1.46,4.78-4.53,4.89-2.9.1-4.86-1.76-5.04-4.66Z" style="fill: #fff;"/>
          <path d="M90.11,434.56c1.85-.06,2.79-.95,2.7-3.57l-.51-14.57,1.55-.06.51,14.57c.12,3.45-1.4,5-4.21,5.1l-.05-1.47Z" style="fill: #fff;"/>
          <path d="M106.34,432.02l.05,1.42-8.42.29-.61-17.49,8.15-.28.05,1.42-6.6.23.23,6.47,6.17-.22.05,1.42-6.17.22.24,6.75,6.87-.24Z" style="fill: #fff;"/>
          <path d="M108.62,428.26l-.43-12.39,1.55-.06.43,12.39c.09,2.65,1.45,3.78,3.35,3.71s3.19-1.29,3.09-3.94l-.43-12.39,1.54-.05.43,12.39c.12,3.5-1.79,5.39-4.59,5.49-2.8.1-4.83-1.66-4.95-5.16Z" style="fill: #fff;"/>
          <path d="M121.07,415.42l1.6-.06,5.07,10.03c.65,1.23,1.62,3.27,2.05,4.26l.07-.03c-.12-1.28-.33-3.54-.38-5.04l-.33-9.45,1.55-.05.61,17.49-1.6.06-5.14-10.1c-.59-1.16-1.56-3.32-1.92-4.18l-.08.03c.1,1.32.24,3.32.29,4.69l.34,9.8-1.55.05-.61-17.49Z" style="fill: #fff;"/>
          <path d="M143.3,430.73l.05,1.42-8.42.29-.61-17.49,8.15-.28.05,1.42-6.6.23.23,6.47,6.17-.22.05,1.42-6.17.22.24,6.75,6.87-.24Z" style="fill: #fff;"/>
          <path d="M144.76,427.6l1.54-.05c.15,2.17,1.44,3.28,3.39,3.21,2.13-.07,3.12-1.43,3.06-3.33-.14-4.05-7.89-3.8-8.07-8.88-.08-2.4,1.67-4.34,4.37-4.43,2.75-.1,4.51,1.79,4.74,4.54l-1.55.05c-.18-2.19-1.42-3.15-3.09-3.1-1.9.07-2.96,1.2-2.9,2.88.14,4.05,7.88,3.63,8.07,8.88.08,2.37-1.46,4.78-4.53,4.89-2.9.1-4.86-1.76-5.04-4.66Z" style="fill: #fff;"/>
        </g>
        <g>
          <path d="M50.89,303.32c-.21-5.94,6.4-8.75,6.28-12.17-.03-.97-.62-1.85-1.82-1.8-1.11.04-1.76.85-1.77,2.27l-2.94.1c.04-3.32,1.71-5.19,4.58-5.29,3.29-.11,4.95,2.17,5.03,4.48.17,4.83-6.27,8.03-6.16,11.42l6.65-.23.1,2.87-9.88.35-.07-2Z" style="fill: #fff;"/>
          <path d="M61.97,299.83l-.29-8.15c-.12-3.36,1.73-5.48,4.88-5.59,3.21-.11,5.2,1.87,5.31,5.24l.29,8.15c.12,3.34-1.73,5.43-4.94,5.54-3.15.11-5.14-1.85-5.26-5.18ZM69.15,299.61l-.28-8.15c-.06-1.66-.82-2.5-2.19-2.45-1.34.05-2.05.94-1.99,2.6l.28,8.15c.06,1.6.82,2.44,2.16,2.4,1.37-.05,2.07-.94,2.02-2.54Z" style="fill: #fff;"/>
          <path d="M73.43,302.54c-.21-5.94,6.4-8.75,6.28-12.17-.03-.97-.62-1.85-1.82-1.8-1.11.04-1.76.85-1.77,2.27l-2.94.1c.04-3.32,1.71-5.19,4.58-5.29,3.29-.11,4.95,2.17,5.03,4.48.17,4.83-6.27,8.03-6.16,11.42l6.65-.23.1,2.87-9.88.35-.07-2Z" style="fill: #fff;"/>
          <path d="M94.42,296.38l.1,2.76c.1,3-1.9,5.04-4.85,5.14-2.92.1-5.03-1.8-5.14-4.79l-.32-9.12c-.11-3,1.83-5.01,4.77-5.11,2.87-.1,4.9,1.75,5.11,4.72l-3.05.11c-.17-1.18-.86-1.84-1.99-1.8-1.16.04-1.84.75-1.8,1.98l.09,2.63c.51-.52,1.33-.94,2.39-.98,2.63-.09,4.59,1.76,4.68,4.47ZM91.35,296.7c-.04-1.26-.86-1.97-2.02-1.93-1.18.04-1.89.8-1.85,2.06l.09,2.52c.05,1.26.83,1.94,1.99,1.9,1.16-.04,1.93-.78,1.88-2.04l-.09-2.52Z" style="fill: #fff;"/>
          <path d="M95.3,293.04l6.49-.23.09,2.68-6.49.23-.09-2.68Z" style="fill: #fff;"/>
          <path d="M102.98,301.5c-.21-5.94,6.41-8.75,6.29-12.17-.03-.97-.62-1.85-1.83-1.8-1.1.04-1.76.85-1.76,2.27l-2.94.1c.04-3.32,1.71-5.19,4.58-5.29,3.29-.11,4.95,2.17,5.03,4.48.17,4.83-6.27,8.04-6.15,11.42l6.65-.23.1,2.87-9.88.35-.07-2Z" style="fill: #fff;"/>
          <path d="M114.07,298.01l-.29-8.15c-.12-3.36,1.73-5.48,4.88-5.59,3.21-.11,5.2,1.87,5.31,5.24l.29,8.15c.12,3.34-1.73,5.43-4.94,5.54-3.15.11-5.14-1.85-5.26-5.18ZM121.25,297.79l-.28-8.15c-.06-1.66-.82-2.5-2.19-2.45-1.34.05-2.05.94-1.99,2.59l.28,8.15c.06,1.6.82,2.44,2.17,2.4,1.37-.05,2.07-.94,2.02-2.54Z" style="fill: #fff;"/>
          <path d="M134.99,295.83l.04,1.18c.13,3.7-1.33,5.73-4.77,5.85-3.07.11-4.93-1.72-5.15-5.16l3.05-.11c.16,1.63.79,2.29,1.97,2.25,1.39-.05,1.86-.91,1.8-2.77l-.03-1.03c-.07-1.89-.88-2.42-2.26-2.37l-1.71.06-.07-2.08,2.65-4.72-5.12.18-.1-2.81,8.88-.31.07,2.05-3,5.26c2.32.13,3.68,2.16,3.77,4.53Z" style="fill: #fff;"/>
          <path d="M141.24,283.75l.64,18.4-3.07.11-.5-14.22-2.57,1.75-.12-3.42,3.54-2.54,2.08-.07Z" style="fill: #fff;"/>
        </g>
      </g>
      <g>
        <g>
          <path d="M.66,252.59V35.76C.66,16.37,16.8.66,36.7.66h240.91c19.91,0,36.05,15.72,36.05,35.1v216.83" style="fill: #fff;"/>
          <path d="M314.32,252.59h-1.31V35.76c0-18.99-15.88-34.44-35.39-34.44H36.7C17.19,1.31,1.31,16.77,1.31,35.76v216.83H0V35.76C0,16.04,16.46,0,36.7,0h240.91c20.24,0,36.7,16.04,36.7,35.76v216.83Z" style="fill: #006e82;"/>
        </g>
        <g>
          <path d="M289.48,256.86h-104.47c-12.33,0-22.88,5.35-28.61,15.12-5.94-9.77-16.5-15.12-28.61-15.12H25.08c-14.08,0-24.21-9.32-24.42-21.56v206.27c0,11.71,9.49,21.2,21.2,21.2h270.6c11.71,0,21.2-9.49,21.2-21.2v-206.27c0,12.24-10.34,21.56-24.19,21.56Z" style="fill: #006e83;"/>
          <path d="M292.46,463.42H21.86c-12.05,0-21.86-9.8-21.86-21.86v-206.27h1.31c.21,12.11,10.21,20.9,23.77,20.9h102.7c12.18,0,22.54,5.28,28.6,14.53,5.87-9.25,16.23-14.53,28.62-14.53h104.47c13.41,0,23.53-8.99,23.53-20.9h1.31v206.27c0,12.05-9.81,21.86-21.86,21.86ZM1.31,242.54v199.03c0,11.33,9.22,20.55,20.55,20.55h270.6c11.33,0,20.55-9.22,20.55-20.55v-198.85c-3.27,8.79-12.31,14.79-23.53,14.79h-104.47c-12.31,0-22.53,5.39-28.05,14.8l-.56.95-.57-.94c-5.72-9.41-15.94-14.81-28.05-14.81H25.08c-11.46,0-20.5-5.98-23.77-14.97Z" style="fill: #006e82;"/>
        </g>
        <g>
          <path d="M53.53,382c-.24-.22-.36-.53-.37-.92l-2.31-66.16c-.02-.46.08-.79.31-.99.22-.2.56-.31,1.02-.33l2.36-.08c.46-.01.8.07,1.04.26.23.19.36.51.38.97l2.19,62.72,8.44-.3c.46-.01.8.09,1.04.31.24.22.37.56.39,1.02l.07,2.06c.01.39-.09.71-.32.94-.22.24-.56.37-1.02.38l-12.17.43c-.46.01-.81-.09-1.04-.31Z" style="fill: #fff;"/>
          <path d="M71.51,317.34c-.24-.25-.36-.61-.38-1.07l-.07-2.06c-.02-.39.09-.7.31-.94.22-.24.56-.36,1.02-.38l9.62-.34c.72-.03,1.16.39,1.33,1.23l6.92,65.9c.02.46-.09.81-.31,1.04-.22.24-.53.36-.92.38l-2.45.09c-.46.02-.8-.09-1.04-.31-.24-.22-.36-.53-.37-.92l-5.63-62.5-6.97.24c-.46.01-.81-.1-1.04-.36ZM74.99,381.59l-2.45.09c-.46.02-.79-.09-1-.31-.21-.22-.31-.56-.33-1.02l2.22-62.88,4.23-.05-1.44,62.85c.03.85-.39,1.29-1.23,1.32ZM74.99,350.74l9.52-.33.15,4.32-9.52.33-.15-4.32Z" style="fill: #fff;"/>
          <path d="M95.14,380.55c-.24-.22-.36-.53-.37-.92l-2.31-66.16c-.02-.39.09-.7.31-.94.22-.24.56-.36,1.02-.38l8.05-.28c3.41-.12,5.87.63,7.4,2.25s2.35,3.93,2.46,6.94l.59,16.88c.07,2.1-.3,3.8-1.1,5.1-.81,1.31-2.19,1.99-4.15,2.06l-.59.02v-.2s.48-.02.48-.02c2.09-.07,3.59.51,4.48,1.76.89,1.25,1.38,2.82,1.45,4.72l.67,19.24c.1,3.01-.57,5.39-2.02,7.15s-3.83,2.69-7.18,2.8l-8.15.28c-.46.02-.81-.08-1.04-.31ZM107.47,374.56c.62-.81.91-2.16.84-4.06l-.67-19.24c-.05-1.44-.4-2.49-1.04-3.16-.65-.67-1.72-.97-3.23-.92l-5.3.19-.14-4.03,5.3-.19c1.51-.05,2.55-.43,3.15-1.14.6-.71.87-1.81.82-3.32l-.6-17.18c-.06-1.83-.44-3.13-1.12-3.89-.68-.76-1.84-1.12-3.48-1.06l-4.32.15,2.07,59.29,4.42-.16c1.57-.05,2.67-.48,3.3-1.29Z" style="fill: #fff;"/>
          <path d="M120.18,379.67c-.24-.22-.36-.53-.37-.92l-2.31-66.16c-.02-.46.08-.79.31-.99.22-.21.56-.32,1.02-.33l12.46-.44c.46-.01.8.07,1.04.26.24.19.36.51.38.97l.07,2.06c.02.46-.08.8-.3,1.04-.22.24-.56.37-1.02.38l-8.74.31,2.07,59.29,8.74-.31c.46-.01.8.09,1.04.31.24.22.36.56.38,1.02l.07,2.06c.01.39-.09.71-.31.95s-.56.36-1.02.38l-12.46.44c-.46.01-.81-.09-1.04-.31ZM121.05,341.46l9.91-.35c.46-.02.8.1,1.04.36.24.25.36.61.38,1.07l.07,1.96c.01.39-.09.73-.31.99-.22.27-.56.41-1.02.43l-9.91.35-.17-4.81Z" style="fill: #fff;"/>
          <path d="M139.41,379c-.24-.22-.36-.53-.37-.92l-2.31-66.16c-.02-.46.08-.79.31-.99.22-.21.56-.32,1.02-.33l2.36-.08c.46-.01.8.07,1.04.26.23.19.36.51.37.97l2.19,62.72,8.44-.3c.46-.01.8.09,1.04.31.24.22.37.56.39,1.02l.07,2.06c.01.39-.09.71-.32.94-.22.24-.56.37-1.02.38l-12.17.43c-.46.01-.81-.09-1.04-.31Z" style="fill: #fff;"/>
          <path d="M157.77,378.36c-.24-.22-.36-.53-.37-.92l-2.31-66.16c-.02-.46.08-.79.31-.99.21-.21.56-.31,1.01-.33l2.36-.08c.46-.02.8.07,1.04.26.23.19.36.51.38.97l2.19,62.72,8.44-.29c.46-.02.8.09,1.04.31.24.22.37.56.39,1.02l.07,2.06c.01.39-.09.71-.32.95-.22.24-.56.36-1.01.38l-12.17.43c-.46.02-.81-.09-1.04-.31Z" style="fill: #fff;"/>
          <path d="M176.12,377.72c-.24-.22-.36-.53-.37-.92l-2.31-66.16c-.02-.46.08-.79.31-.99.22-.2.56-.31,1.02-.33l2.35-.08c.46-.01.8.07,1.04.26.23.19.36.51.38.97l2.31,66.16c.01.39-.09.71-.31.94-.22.24-.56.37-1.02.38l-2.35.08c-.46.01-.81-.09-1.04-.31Z" style="fill: #fff;"/>
          <path d="M188.93,375.85c-1.53-1.65-2.36-4.18-2.48-7.58l-.5-14.43c-.01-.46.09-.8.31-1.04.22-.24.53-.36.92-.38l2.55-.09c.33-.01.62.09.9.31.27.22.42.56.43,1.02l.51,14.53c.07,2.03.44,3.47,1.13,4.33.68.86,1.81,1.26,3.38,1.21,1.57-.06,2.69-.53,3.34-1.44.65-.91.94-2.38.87-4.4l-.52-14.92c-.06-1.76-.45-3.08-1.16-3.94-.72-.86-2.08-1.75-4.07-2.66l-2.39-.9c-2.33-.97-4-2.14-5.04-3.51-1.03-1.37-1.59-3.24-1.67-5.59l-.62-17.67c-.12-3.4.51-5.99,1.89-7.78,1.38-1.78,3.74-2.74,7.07-2.85,3.34-.12,5.79.68,7.36,2.39,1.57,1.72,2.41,4.24,2.53,7.58l.59,16.88c.01.33-.09.63-.31.9-.22.27-.56.41-1.02.43l-2.46.09c-.39.01-.71-.11-.95-.36-.24-.25-.37-.54-.38-.87l-.59-16.98c-.07-2.09-.47-3.56-1.18-4.38-.71-.83-1.86-1.21-3.43-1.16-1.51.05-2.61.52-3.29,1.39-.69.88-1,2.36-.92,4.46l.59,16.88c.06,1.83.45,3.14,1.17,3.94.71.8,2.1,1.65,4.16,2.56l2.4,1c2.39.9,4.1,2.03,5.13,3.41,1.03,1.37,1.59,3.24,1.67,5.59l.55,15.81c.12,3.34-.53,5.9-1.94,7.68-1.42,1.79-3.82,2.74-7.22,2.86-3.34.12-5.77-.65-7.3-2.3Z" style="fill: #fff;"/>
          <path d="M212.04,376.46c-.24-.22-.36-.53-.37-.92l-2.31-66.16c-.02-.46.08-.79.31-.99.22-.21.56-.31,1.02-.33l12.46-.43c.46-.02.8.07,1.04.26.24.19.36.51.38.97l.07,2.06c.02.46-.08.8-.3,1.04-.22.24-.56.36-1.02.38l-8.74.3,2.07,59.29,8.74-.3c.46-.02.8.09,1.04.31.24.22.36.56.38,1.02l.07,2.06c.01.39-.09.71-.31.95-.22.24-.56.36-1.02.38l-12.46.43c-.46.02-.81-.09-1.04-.31ZM212.92,338.25l9.92-.35c.46-.01.8.1,1.04.36.24.26.36.61.38,1.07l.07,1.96c.01.39-.09.73-.31.99-.22.27-.56.42-1.02.43l-9.92.35-.17-4.81ZM214.66,303.6c-.14-.26-.12-.59.06-.99l3.65-7.89c.31-.6.75-.91,1.34-.93l2.07-.07c.52-.02.87.12,1.05.41.17.29.17.63-.02,1.03l-4.05,7.81c-.12.33-.29.57-.51.7-.23.14-.5.22-.83.23l-1.77.06c-.53.02-.86-.1-1-.36Z" style="fill: #fff;"/>
          <path d="M231.28,375.79c-.24-.22-.36-.53-.37-.92l-2.31-66.16c-.02-.46.08-.79.31-.99.22-.21.56-.31,1.02-.33l12.46-.43c.46-.02.8.07,1.04.26.24.19.36.51.38.97l.07,2.06c.02.46-.08.8-.3,1.04-.22.24-.56.36-1.02.38l-8.74.3,2.07,59.29,8.74-.3c.46-.02.8.09,1.04.31.24.22.36.56.38,1.02l.07,2.06c.01.39-.09.71-.31.95-.22.24-.56.36-1.02.38l-12.46.43c-.46.02-.81-.09-1.04-.31ZM232.16,337.58l9.91-.35c.46-.01.8.1,1.04.36.24.26.36.61.38,1.07l.07,1.96c.01.39-.09.73-.31.99-.22.27-.56.42-1.02.43l-9.91.35-.17-4.81Z" style="fill: #fff;"/>
          <path d="M258.61,354.94l-2.24-47.29c-.01-.39.07-.69.26-.89.19-.2.48-.31.87-.33l2.75-.1c.39-.01.7.07.94.26.23.19.36.48.37.87l.96,47.34c.03.85-.34,1.29-1.13,1.31l-1.47.05c-.79.03-1.23-.38-1.32-1.23ZM259.11,374.82c-.27-.22-.41-.53-.42-.92l-.21-5.79c-.01-.46.1-.81.36-1.05.25-.24.58-.36.97-.37l2.46-.09c.52-.02.88.08,1.09.3.21.22.32.56.33,1.02l.21,5.79c.01.39-.08.71-.27.94-.19.24-.54.36-1.06.38l-2.46.09c-.39.01-.73-.09-1-.31Z" style="fill: #fff;"/>
        </g>
        <g>
          <g>
            <path d="M135.92,49.57c0-9.3,7.56-16.86,16.86-16.86s16.86,7.56,16.86,16.86-7.56,16.86-16.86,16.86-16.86-7.56-16.86-16.86M155.27,93.06v-23.03c10.21-1.23,18.15-9.93,18.15-20.46,0-11.38-9.26-20.63-20.63-20.63s-20.63,9.26-20.63,20.63,8.57,19.9,19.35,20.56v22.93c.62-.1,1.24-.17,1.88-.17s1.27.07,1.88.17" style="fill: #2897d5;"/>
            <path d="M188.88,57.29c6.53,0,11.83,5.31,11.83,11.83s-5.3,11.83-11.83,11.83-11.82-5.3-11.82-11.83,5.3-11.83,11.82-11.83M179.28,81.39c2.65,2.08,5.98,3.33,9.6,3.33,8.61,0,15.61-7,15.61-15.6s-7-15.6-15.61-15.6-15.6,7-15.6,15.6c0,3.62,1.25,6.95,3.33,9.6l-16.46,16.46c1.01.77,1.88,1.7,2.58,2.76l16.55-16.55Z" style="fill: #d60b52;"/>
            <path d="M222.63,101.44c0,2.41-.58,4.68-1.58,6.71h4.11c.79-2.09,1.24-4.34,1.24-6.71,0-10.49-8.54-19.03-19.03-19.03s-19.02,8.54-19.02,19.03c0,.25.03.49.04.73h-24.01c.11.62.17,1.24.17,1.89s-.07,1.27-.17,1.89h24.54c.18.75.41,1.49.68,2.2h4.11c-1-2.03-1.58-4.3-1.58-6.71,0-8.41,6.84-15.25,15.25-15.25s15.25,6.84,15.25,15.25" style="fill: #a3195b;"/>
            <path d="M115.19,103.5c0,1.64-.32,3.21-.9,4.65h3.99c.27-.89.46-1.82.56-2.77h23.45c-.05-.43-.09-.88-.09-1.32,0-.84.1-1.66.28-2.45h-23.65c-.94-8.16-7.88-14.52-16.29-14.52-9.05,0-16.41,7.36-16.41,16.41,0,1.62.24,3.18.68,4.65h3.99c-.57-1.44-.9-3.01-.9-4.65,0-6.97,5.67-12.63,12.64-12.63s12.63,5.66,12.63,12.63" style="fill: #f39200;"/>
            <path d="M113.7,80.95c-8.52,0-15.45-6.93-15.45-15.45s6.93-15.45,15.45-15.45,15.45,6.93,15.45,15.45-6.93,15.45-15.45,15.45M143.83,98.29c.66-1.09,1.49-2.06,2.47-2.87l-17.74-17.74c2.73-3.32,4.37-7.57,4.37-12.19,0-10.6-8.63-19.22-19.23-19.22s-19.22,8.62-19.22,19.22,8.62,19.23,19.22,19.23c4.62,0,8.87-1.64,12.19-4.37l17.94,17.94Z" style="fill: #95c11f;"/>
          </g>
          <g>
            <g>
              <path d="M84,168.49c-.25-.59-.61-1.09-1.05-1.5-.45-.42-.99-.74-1.59-.99-.62-.24-1.27-.36-1.96-.36h-5.54v27.71h1.73v-11.85h3.81c.69,0,1.35-.14,1.96-.4.61-.26,1.14-.63,1.59-1.07.45-.45.8-.98,1.05-1.57.25-.61.38-1.25.38-1.94v-6.09c0-.69-.13-1.33-.38-1.92ZM82.65,176.51c0,.44-.09.86-.26,1.27-.18.4-.4.74-.69,1.04-.28.29-.63.52-1.02.69-.4.18-.82.26-1.29.26h-3.81v-12.4h3.81c.91,0,1.67.29,2.3.87.63.58.96,1.3.96,2.18v6.09Z" style="fill: #1e1e1c;"/>
              <path d="M95.38,176.33c-.24-.57-.57-1.05-.99-1.46-.42-.41-.9-.72-1.46-.94s-1.15-.33-1.8-.33-1.25.12-1.81.33c-.55.21-1.04.53-1.46.94-.41.4-.74.89-.99,1.46s-.36,1.19-.36,1.89v.69h1.73v-.69c0-.81.25-1.49.76-2.04.51-.56,1.21-.83,2.12-.83s1.6.25,2.11.76c.51.51.76,1.21.76,2.11v3.22l-4.82,1.52c-1,.39-1.82,1.02-2.46,1.89-.64.87-.97,1.91-.97,3.14v2.39c0,.92.32,1.71.97,2.35.64.64,1.44.97,2.35.97.47,0,.98-.13,1.54-.38.57-.25,1.1-.54,1.61-.86.61-.37,1.19-.79,1.77-1.25v2.15h1.73v-15.14c0-.69-.12-1.32-.36-1.89ZM94.01,189.09c-.58.53-1.16,1-1.77,1.42-.51.37-1.05.7-1.61,1.01s-1.07.45-1.54.45c-.39,0-.75-.17-1.08-.51-.34-.33-.51-.69-.51-1.08v-2.39c0-.76.21-1.45.61-2.06.41-.62,1.02-1.07,1.82-1.41l4.09-1.28v5.86Z" style="fill: #1e1e1c;"/>
              <path d="M107.18,174.05l-3.29,17.91h-.56c-.07,0-.12-.03-.16-.09-.04-.06-.08-.11-.12-.16-.05-.07-.07-.14-.07-.21l-3.26-17.49h-1.73l3.39,18.5c.05.29.21.57.51.81.28.24.62.36.99.36h.69l-.94,5.13h1.73l4.54-24.77h-1.73Z" style="fill: #1e1e1c;"/>
              <path d="M120.62,178.91v-.69c0-.64-.13-1.25-.37-1.8-.24-.56-.57-1.05-.99-1.46-.41-.42-.9-.75-1.46-.99-.55-.24-1.15-.37-1.8-.37h-.76c-.64,0-1.25.13-1.81.37-.55.23-1.04.57-1.46.99s-.74.9-.99,1.46c-.23.55-.36,1.15-.36,1.8v.69c0,.69.21,1.34.64,1.94.42.6.91,1.12,1.44,1.59.6.53,1.29,1.02,2.08,1.46.76.48,1.44.96,2.04,1.42.53.39,1.01.83,1.42,1.3.42.47.63.91.63,1.3v1.18c0,.8-.27,1.48-.83,2.04s-1.23.83-2.04.83h-.76c-.81,0-1.49-.27-2.04-.83-.56-.56-.83-1.24-.83-2.04v-3.09h-1.74v3.09c0,.62.13,1.21.36,1.78.24.57.58,1.05.99,1.47.42.41.91.74,1.46.99.56.24,1.16.36,1.81.36h.76c.64,0,1.25-.12,1.8-.36.56-.24,1.05-.58,1.46-.99.42-.42.74-.91.99-1.47.24-.57.37-1.16.37-1.78v-1.18c0-.69-.22-1.35-.66-1.97-.44-.63-.92-1.17-1.46-1.63-.63-.56-1.34-1.06-2.15-1.52-.71-.46-1.37-.91-1.97-1.35-.51-.39-.97-.82-1.39-1.27-.41-.45-.62-.87-.62-1.26v-.69c0-.81.27-1.49.83-2.04.55-.56,1.23-.83,2.04-.83h.76c.81,0,1.48.27,2.04.83.56.55.83,1.23.83,2.04v.69h1.74Z" style="fill: #1e1e1c;"/>
              <path d="M137.69,166.88v7.7c-.32-.25-.73-.49-1.23-.69-.5-.21-1.05-.31-1.65-.31h-.76c-.64,0-1.24.12-1.8.36s-1.04.57-1.46.99c-.41.42-.74.91-.99,1.47-.24.57-.36,1.16-.36,1.78v12.2c0,.92.32,1.71.97,2.35s1.44.97,2.35.97c.47,0,.98-.13,1.54-.38.57-.25,1.1-.54,1.61-.86.6-.37,1.19-.79,1.77-1.25v2.15h1.73v-26.47h-1.73ZM137.69,189.09c-.58.53-1.17,1-1.77,1.42-.51.37-1.05.7-1.61,1.01-.57.3-1.07.45-1.54.45-.39,0-.75-.15-1.08-.43-.34-.29-.51-.68-.51-1.16v-12.2c0-.8.28-1.48.83-2.04.56-.56,1.24-.83,2.04-.83h.76c.4,0,.77.07,1.11.21.35.15.65.33.92.58s.47.53.63.87c.15.33.22.68.22,1.05v11.09Z" style="fill: #1e1e1c;"/>
              <path d="M153.21,182.68v-4.46c0-.64-.13-1.25-.37-1.8-.23-.56-.57-1.05-.99-1.46-.41-.42-.9-.75-1.46-.99-.55-.24-1.15-.37-1.8-.37h-.76c-.64,0-1.25.13-1.8.37-.56.23-1.05.57-1.46.99-.42.41-.75.9-.99,1.46-.24.55-.37,1.15-.37,1.8v10.88c0,.64.13,1.24.37,1.8.23.56.57,1.04.99,1.46.41.41.9.74,1.46.99.55.24,1.15.36,1.8.36h.76c.64,0,1.25-.12,1.8-.36.56-.24,1.05-.58,1.46-.99.42-.42.75-.9.99-1.46.24-.56.37-1.15.37-1.8v-2.5h-1.74v2.5c0,.8-.27,1.48-.83,2.04s-1.23.83-2.04.83h-.76c-.81,0-1.49-.27-2.04-.83-.56-.56-.83-1.24-.83-2.04v-6.42h8.24ZM144.96,178.21c0-.81.27-1.49.83-2.04.55-.56,1.23-.83,2.04-.83h.76c.81,0,1.48.27,2.04.83.56.55.83,1.23.83,2.04v2.77h-6.5v-2.77Z" style="fill: #1e1e1c;"/>
              <path d="M172.57,165.64l-4.75,25.87c-.02.07-.05.16-.09.27-.03.12-.12.18-.25.18h-.28c-.07,0-.12-.03-.16-.09-.03-.06-.07-.11-.12-.16-.05-.07-.07-.14-.07-.21l-4.82-25.87h-1.73l4.95,26.88c.04.29.21.57.5.81.29.24.62.36.99.36h1.18c.37,0,.69-.13.99-.38.28-.25.45-.52.5-.79l4.88-26.88h-1.73Z" style="fill: #1e1e1c;"/>
              <path d="M185.29,176.33c-.24-.57-.57-1.05-.99-1.46-.41-.41-.9-.72-1.46-.94-.55-.21-1.15-.33-1.8-.33s-1.25.12-1.81.33c-.55.21-1.04.53-1.46.94-.41.4-.74.89-.99,1.46-.23.57-.36,1.19-.36,1.89v.69h1.73v-.69c0-.81.25-1.49.76-2.04.52-.56,1.22-.83,2.12-.83s1.6.25,2.11.76.76,1.21.76,2.11v3.22l-4.82,1.52c-.99.39-1.81,1.02-2.46,1.89-.64.87-.97,1.91-.97,3.14v2.39c0,.92.32,1.71.97,2.35.65.64,1.44.97,2.36.97.46,0,.97-.13,1.53-.38.57-.25,1.1-.54,1.61-.86.61-.37,1.19-.79,1.77-1.25v2.15h1.73v-15.14c0-.69-.12-1.32-.36-1.89ZM183.92,189.09c-.58.53-1.16,1-1.77,1.42-.51.37-1.05.7-1.61,1.01s-1.07.45-1.53.45c-.4,0-.76-.17-1.09-.51-.33-.33-.51-.69-.51-1.08v-2.39c0-.76.21-1.45.62-2.06.4-.62,1.01-1.07,1.82-1.41l4.08-1.28v5.86Z" style="fill: #1e1e1c;"/>
              <path d="M198.64,174.58c-.64-.65-1.43-.98-2.35-.98-.46,0-.98.13-1.54.38-.57.25-1.1.55-1.61.87-.6.37-1.18.78-1.76,1.25v-2.15h-1.74v19.4h1.74v-15.18c.58-.53,1.16-1,1.76-1.42.51-.37,1.05-.69,1.61-.99.57-.29,1.08-.43,1.54-.43.39,0,.76.14,1.09.43.33.29.5.67.5,1.16v16.42h1.74v-16.42c0-.93-.33-1.71-.98-2.35Z" style="fill: #1e1e1c;"/>
              <path d="M212.61,174.58c-.65-.65-1.44-.98-2.36-.98-.46,0-.98.13-1.53.38-.57.25-1.1.55-1.61.87-.61.37-1.19.78-1.77,1.25v-2.15h-1.74v19.4h1.74v-15.18c.58-.53,1.16-1,1.77-1.42.51-.37,1.05-.69,1.61-.99.56-.29,1.07-.43,1.53-.43.4,0,.76.14,1.09.43.33.29.51.67.51,1.16v16.42h1.73v-16.42c0-.93-.32-1.71-.97-2.35Z" style="fill: #1e1e1c;"/>
              <path d="M227.19,182.68v-4.46c0-.64-.13-1.25-.37-1.8-.24-.56-.57-1.05-.99-1.46-.41-.42-.9-.75-1.46-.99-.55-.24-1.15-.37-1.8-.37h-.76c-.64,0-1.25.13-1.81.37-.55.23-1.04.57-1.46.99-.41.41-.74.9-.99,1.46-.23.55-.36,1.15-.36,1.8v10.88c0,.64.13,1.24.36,1.8.24.56.58,1.04.99,1.46.42.41.91.74,1.46.99.56.24,1.16.36,1.81.36h.76c.64,0,1.25-.12,1.8-.36.56-.24,1.05-.58,1.46-.99.42-.42.74-.9.99-1.46s.37-1.15.37-1.8v-2.5h-1.74v2.5c0,.8-.27,1.48-.83,2.04s-1.23.83-2.04.83h-.76c-.81,0-1.49-.27-2.04-.83-.56-.56-.84-1.24-.84-2.04v-6.42h8.25ZM218.94,178.21c0-.81.28-1.49.84-2.04.55-.56,1.23-.83,2.04-.83h.76c.81,0,1.48.27,2.04.83.56.55.83,1.23.83,2.04v2.77h-6.51v-2.77Z" style="fill: #1e1e1c;"/>
              <path d="M239.76,178.91v-.69c0-.64-.13-1.25-.36-1.8-.24-.56-.58-1.05-.99-1.46s-.91-.75-1.46-.99c-.56-.24-1.16-.37-1.81-.37h-.76c-.64,0-1.25.13-1.8.37-.56.23-1.05.57-1.46.99-.42.41-.74.9-.99,1.46-.24.55-.36,1.15-.36,1.8v.69c0,.69.21,1.34.63,1.94.43.6.91,1.12,1.44,1.59.61.53,1.3,1.02,2.08,1.46.76.48,1.45.96,2.04,1.42.54.39,1.01.83,1.43,1.3.41.47.63.91.63,1.3v1.18c0,.8-.28,1.48-.84,2.04-.55.56-1.23.83-2.04.83h-.76c-.81,0-1.48-.27-2.04-.83-.56-.56-.83-1.24-.83-2.04v-3.09h-1.73v3.09c0,.62.12,1.21.36,1.78.24.57.57,1.05.99,1.47s.9.74,1.46.99c.55.24,1.15.36,1.8.36h.76c.64,0,1.25-.12,1.81-.36.55-.24,1.04-.58,1.46-.99.41-.42.74-.91.99-1.47.23-.57.36-1.16.36-1.78v-1.18c0-.69-.22-1.35-.66-1.97-.44-.63-.92-1.17-1.46-1.63-.62-.56-1.34-1.06-2.14-1.52-.72-.46-1.38-.91-1.97-1.35-.52-.39-.98-.82-1.39-1.27-.42-.45-.63-.87-.63-1.26v-.69c0-.81.27-1.49.83-2.04.56-.56,1.23-.83,2.04-.83h.76c.81,0,1.49.27,2.04.83.56.55.84,1.23.84,2.04v.69h1.73Z" style="fill: #1e1e1c;"/>
            </g>
            <g>
              <path d="M76.22,119.51h-4.76l-4.81,30.39-4.71-30.39h-4.81l-1.36,35.24h2.2l1.32-33.03h.88l5.38,32.58h2.2l5.42-32.58h.88l1.28,33.03h2.2l-1.32-35.24Z" style="fill: #1e1e1c;"/>
              <path d="M87.19,152.79c-.36-.14-.67-.29-.95-.49-.28-.19-.52-.41-.71-.65-.19-.25-.28-.48-.28-.68v-20.87h-2.2v20.87c0,.59.15,1.13.46,1.65.3.51.71.96,1.21,1.34.5.38,1.05.68,1.65.91.61.21,1.19.33,1.79.33v-2.21c-.29,0-.62-.07-.97-.2ZM83.05,121.06v4.67h2.2v-4.67h-2.2Z" style="fill: #1e1e1c;"/>
              <path d="M103.26,136.38v-.88c0-.82-.16-1.58-.46-2.29-.31-.71-.73-1.33-1.26-1.86s-1.14-.95-1.85-1.25c-.7-.31-1.47-.47-2.29-.47h-.98c-.82,0-1.58.16-2.29.47-.7.3-1.32.72-1.86,1.25-.53.53-.94,1.14-1.25,1.86-.31.7-.46,1.47-.46,2.29v.88c0,.88.26,1.71.81,2.47.55.76,1.15,1.44,1.83,2.02.76.67,1.64,1.29,2.65,1.86.97.62,1.84,1.21,2.6,1.8.67.51,1.27,1.05,1.81,1.66.53.6.79,1.15.79,1.65v1.49c0,1.03-.35,1.89-1.05,2.6-.71.7-1.57,1.05-2.6,1.05h-.98c-1.03,0-1.89-.35-2.6-1.05-.7-.7-1.05-1.57-1.05-2.6v-3.92h-2.2v3.92c0,.79.15,1.55.46,2.27.31.72.72,1.35,1.25,1.88.54.53,1.15.95,1.86,1.25.7.31,1.47.47,2.29.47h.98c.82,0,1.58-.16,2.29-.47.7-.3,1.32-.72,1.85-1.25.53-.53.95-1.15,1.26-1.88.3-.71.46-1.47.46-2.27v-1.49c0-.89-.27-1.72-.83-2.51-.57-.8-1.18-1.48-1.86-2.07-.79-.7-1.7-1.36-2.72-1.94-.92-.59-1.75-1.15-2.51-1.72-.65-.5-1.24-1.03-1.77-1.6-.53-.58-.79-1.11-.79-1.61v-.88c0-1.03.35-1.89,1.05-2.6s1.57-1.05,2.6-1.05h.98c1.03,0,1.89.35,2.6,1.05.7.7,1.05,1.57,1.05,2.6v.88h2.2Z" style="fill: #1e1e1c;"/>
              <path d="M119.46,136.38v-.88c0-.82-.15-1.58-.46-2.29-.3-.71-.72-1.33-1.25-1.86-.53-.53-1.15-.95-1.86-1.25-.7-.31-1.47-.47-2.29-.47h-.97c-.83,0-1.59.16-2.3.47-.7.3-1.32.72-1.85,1.25-.53.53-.95,1.14-1.26,1.86-.3.7-.46,1.47-.46,2.29v.88c0,.88.27,1.71.81,2.47.55.76,1.15,1.44,1.83,2.02.77.67,1.65,1.29,2.65,1.86.97.62,1.84,1.21,2.6,1.8.67.51,1.28,1.05,1.81,1.66.53.6.79,1.15.79,1.65v1.49c0,1.03-.35,1.89-1.05,2.6-.7.7-1.57,1.05-2.6,1.05h-.97c-1.04,0-1.89-.35-2.6-1.05-.71-.7-1.06-1.57-1.06-2.6v-3.92h-2.2v3.92c0,.79.16,1.55.46,2.27.31.72.73,1.35,1.26,1.88s1.14.95,1.85,1.25c.7.31,1.47.47,2.3.47h.97c.82,0,1.58-.16,2.29-.47.7-.3,1.33-.72,1.86-1.25s.95-1.15,1.25-1.88c.31-.71.46-1.47.46-2.27v-1.49c0-.89-.27-1.72-.83-2.51-.56-.8-1.17-1.48-1.86-2.07-.79-.7-1.7-1.36-2.73-1.94-.91-.59-1.75-1.15-2.51-1.72-.64-.5-1.23-1.03-1.76-1.6-.54-.58-.8-1.11-.8-1.61v-.88c0-1.03.35-1.89,1.06-2.6.7-.7,1.56-1.05,2.6-1.05h.97c1.03,0,1.89.35,2.6,1.05.7.7,1.05,1.57,1.05,2.6v.88h2.2Z" style="fill: #1e1e1c;"/>
              <path d="M128.23,152.79c-.35-.14-.67-.29-.95-.49-.28-.19-.52-.41-.7-.65-.2-.25-.29-.48-.29-.68v-20.87h-2.2v20.87c0,.59.16,1.13.46,1.65.31.51.71.96,1.21,1.34.5.38,1.05.68,1.65.91.61.21,1.2.33,1.79.33v-2.21c-.29,0-.62-.07-.97-.2ZM124.09,121.06v4.67h2.2v-4.67h-2.2Z" style="fill: #1e1e1c;"/>
              <path d="M144.28,133.22c-.3-.71-.72-1.33-1.25-1.86-.53-.53-1.14-.95-1.86-1.25-.7-.31-1.47-.47-2.29-.47h-.97c-.82,0-1.59.16-2.3.47-.7.3-1.32.72-1.85,1.25-.53.53-.95,1.14-1.26,1.86-.3.7-.46,1.47-.46,2.29v13.83c0,.79.16,1.55.46,2.27.31.72.73,1.35,1.26,1.88s1.14.95,1.85,1.25c.7.31,1.47.47,2.3.47h.97c.82,0,1.58-.16,2.29-.47.71-.3,1.33-.72,1.86-1.25s.95-1.15,1.25-1.88c.31-.71.47-1.47.47-2.27v-13.83c0-.82-.16-1.58-.47-2.29ZM142.54,149.33c0,1.03-.35,1.89-1.05,2.6-.7.7-1.57,1.05-2.6,1.05h-.97c-1.04,0-1.89-.35-2.6-1.05-.7-.7-1.05-1.57-1.05-2.6v-13.83c0-1.03.35-1.89,1.05-2.6s1.56-1.05,2.6-1.05h.97c1.03,0,1.89.35,2.6,1.05.7.7,1.05,1.57,1.05,2.6v13.83Z" style="fill: #1e1e1c;"/>
              <path d="M161.04,130.88c-.82-.82-1.82-1.24-3-1.24-.59,0-1.24.17-1.95.49-.72.32-1.41.69-2.05,1.1-.76.47-1.51,1-2.25,1.58v-2.73h-2.2v24.66h2.2v-19.29c.73-.68,1.48-1.28,2.25-1.81.64-.47,1.33-.89,2.05-1.26.71-.36,1.37-.55,1.95-.55.5,0,.97.19,1.39.55.43.37.64.86.64,1.47v20.88h2.2v-20.88c0-1.17-.41-2.17-1.23-2.99Z" style="fill: #1e1e1c;"/>
              <path d="M176.14,152.54v-33.03h-2.15v35.24h10.87v-2.21h-8.72Z" style="fill: #1e1e1c;"/>
              <path d="M199.29,133.22c-.31-.71-.73-1.33-1.26-1.86-.53-.53-1.14-.95-1.85-1.25-.7-.31-1.47-.47-2.3-.47h-.97c-.82,0-1.58.16-2.29.47-.7.3-1.32.72-1.86,1.25-.53.53-.95,1.14-1.25,1.86-.31.7-.46,1.47-.46,2.29v13.83c0,.79.15,1.55.46,2.27.3.72.72,1.35,1.25,1.88.54.53,1.15.95,1.86,1.25.7.31,1.47.47,2.29.47h.97c.83,0,1.59-.16,2.3-.47.7-.3,1.32-.72,1.85-1.25s.95-1.15,1.26-1.88c.3-.71.46-1.47.46-2.27v-13.83c0-.82-.16-1.58-.46-2.29ZM197.55,149.33c0,1.03-.35,1.89-1.05,2.6-.71.7-1.57,1.05-2.61,1.05h-.97c-1.03,0-1.89-.35-2.6-1.05-.7-.7-1.05-1.57-1.05-2.6v-13.83c0-1.03.35-1.89,1.05-2.6s1.57-1.05,2.6-1.05h.97c1.04,0,1.89.35,2.61,1.05.7.7,1.05,1.57,1.05,2.6v13.83Z" style="fill: #1e1e1c;"/>
              <path d="M216.84,138.8v-3.3c0-.82-.16-1.58-.47-2.29-.3-.71-.72-1.33-1.25-1.86-.53-.53-1.15-.95-1.86-1.25-.7-.31-1.47-.47-2.29-.47h-.97c-.83,0-1.59.16-2.3.47-.7.3-1.32.72-1.85,1.25-.53.53-.95,1.14-1.26,1.86-.3.7-.46,1.47-.46,2.29v13.83c0,.79.16,1.55.46,2.27.31.72.73,1.35,1.26,1.88s1.14.95,1.85,1.25c.7.31,1.47.47,2.3.47h.97c.82,0,1.58-.16,2.29-.47.7-.3,1.33-.72,1.86-1.25s.95-1.15,1.25-1.88c.31-.71.47-1.47.47-2.27v-3.17h-2.21v3.17c0,1.03-.35,1.89-1.05,2.6s-1.57,1.05-2.6,1.05h-.97c-1.04,0-1.89-.35-2.6-1.05-.7-.7-1.06-1.57-1.06-2.6v-13.83c0-1.03.36-1.89,1.06-2.6s1.56-1.05,2.6-1.05h.97c1.03,0,1.89.35,2.6,1.05.7.7,1.05,1.57,1.05,2.6v3.3h2.21Z" style="fill: #1e1e1c;"/>
              <path d="M231.48,133.1c-.31-.71-.73-1.33-1.26-1.85-.53-.52-1.14-.91-1.85-1.19-.7-.27-1.47-.42-2.3-.42s-1.58.15-2.29.42c-.7.28-1.32.67-1.85,1.19-.54.52-.95,1.13-1.26,1.85-.3.72-.46,1.52-.46,2.4v.88h2.2v-.88c0-1.03.32-1.89.97-2.6.64-.7,1.54-1.05,2.69-1.05s2.04.32,2.69.97c.65.64.98,1.54.98,2.69v4.09l-6.12,1.94c-1.26.5-2.3,1.3-3.13,2.4-.82,1.09-1.24,2.42-1.24,3.98v3.04c0,1.17.42,2.17,1.24,2.99.82.83,1.82,1.24,2.99,1.24.59,0,1.24-.17,1.96-.49.72-.32,1.41-.69,2.05-1.1.76-.47,1.5-1,2.25-1.58v2.73h2.2v-19.25c0-.88-.16-1.68-.46-2.4ZM229.74,149.33c-.74.67-1.48,1.28-2.25,1.81-.64.47-1.33.9-2.05,1.28-.72.38-1.38.57-1.96.57-.5,0-.96-.21-1.39-.63-.42-.43-.63-.89-.63-1.39v-3.04c0-.98.25-1.85.77-2.63.51-.77,1.28-1.37,2.31-1.78l5.2-1.63v7.44Z" style="fill: #1e1e1c;"/>
              <path d="M241.36,152.79c-.35-.14-.66-.29-.95-.49-.28-.19-.52-.41-.7-.65-.2-.25-.28-.48-.28-.68v-29.86h-2.21v29.86c0,.59.16,1.13.46,1.65.31.51.71.96,1.22,1.34.5.38,1.05.68,1.65.91.6.21,1.19.33,1.78.33v-2.21c-.29,0-.62-.07-.97-.2Z" style="fill: #1e1e1c;"/>
              <path d="M257.88,141.19v-5.68c0-.82-.16-1.58-.47-2.29-.3-.71-.72-1.33-1.25-1.86s-1.14-.95-1.85-1.25c-.71-.31-1.47-.47-2.3-.47h-.97c-.82,0-1.58.16-2.3.47-.7.3-1.32.72-1.85,1.25-.53.53-.95,1.14-1.25,1.86-.31.7-.47,1.47-.47,2.29v13.83c0,.82.16,1.58.47,2.29.3.71.72,1.33,1.25,1.86.53.53,1.14.95,1.85,1.25.71.31,1.47.47,2.3.47h.97c.82,0,1.58-.16,2.3-.47.7-.3,1.32-.72,1.85-1.25.53-.53.95-1.14,1.25-1.86.31-.7.47-1.47.47-2.29v-3.17h-2.21v3.17c0,1.03-.35,1.89-1.05,2.6s-1.57,1.05-2.6,1.05h-.97c-1.03,0-1.89-.35-2.6-1.05-.7-.7-1.05-1.57-1.05-2.6v-8.15h10.48ZM247.4,135.5c0-1.03.35-1.89,1.05-2.6s1.57-1.05,2.6-1.05h.97c1.03,0,1.89.35,2.6,1.05.7.7,1.05,1.57,1.05,2.6v3.53h-8.27v-3.53Z" style="fill: #1e1e1c;"/>
            </g>
            <path d="M159.46,215.06l-1.98,4.62h3.98l-1.99-4.62ZM159.46,215.06l-1.98,4.62h3.98l-1.99-4.62ZM159.46,215.06l-1.98,4.62h3.98l-1.99-4.62ZM159.46,215.06l-1.98,4.62h3.98l-1.99-4.62ZM133.18,214.86c-.35-.27-.9-.41-1.65-.41h-2.44v3.28h2.44c.74,0,1.29-.14,1.64-.41.35-.27.53-.68.53-1.24s-.18-.96-.52-1.22ZM159.46,215.06l-1.98,4.62h3.98l-1.99-4.62ZM159.46,215.06l-1.98,4.62h3.98l-1.99-4.62ZM133.18,214.86c-.35-.27-.9-.41-1.65-.41h-2.44v3.28h2.44c.74,0,1.29-.14,1.64-.41.35-.27.53-.68.53-1.24s-.18-.96-.52-1.22ZM108.54,206.58v23.38h95.47v-23.38h-95.47ZM124.33,222.95c-.65.53-1.56.78-2.72.78h-4.9v-10.8h4.75c1.11,0,1.99.25,2.63.75.63.5.96,1.19.96,2.07,0,.57-.15,1.06-.45,1.48-.29.42-.71.72-1.23.92.63.18,1.1.5,1.45.95.34.46.51,1.03.51,1.69,0,.92-.32,1.64-.98,2.16ZM134,223.74l-1.38-3.59c-.13-.33-.31-.57-.57-.69-.25-.14-.58-.21-.99-.21h-1.95v4.49h-1.94v-10.8h4.63c1.22,0,2.16.27,2.79.8.63.54.96,1.31.96,2.31,0,.71-.2,1.33-.58,1.83-.37.5-.91.86-1.61,1.06.63.14,1.09.58,1.38,1.34l1.33,3.46h-2.07ZM145.04,214.49h-5.31v2.99h5v1.54h-5v3.17h5.31v1.54h-7.22v-10.8h7.22v1.55ZM151.37,223.74h-1.97v-9.19h-3.52v-1.61h9.02v1.61h-3.54v9.19ZM163.18,223.74l-1.07-2.53h-5.28l-1.09,2.53h-1.97l4.88-10.8h1.6l4.89,10.8h-1.95ZM174.99,223.09c-.5.23-1.09.43-1.8.58-.69.14-1.41.21-2.14.21-1.11,0-2.08-.21-2.9-.66-.81-.45-1.45-1.08-1.88-1.91-.44-.83-.65-1.82-.65-2.97s.21-2.12.65-2.95c.43-.83,1.05-1.47,1.86-1.91.81-.44,1.75-.66,2.83-.66.76,0,1.47.12,2.13.33.66.22,1.22.54,1.66.95l-.66,1.43c-.51-.4-1.01-.68-1.48-.85-.49-.18-1.02-.26-1.59-.26-1.11,0-1.96.33-2.53,1.01-.58.66-.86,1.64-.86,2.93s.29,2.32.88,2.99c.59.67,1.47,1.02,2.63,1.02.71,0,1.41-.1,2.09-.29v-2.72h-2.33v-1.42h4.1v5.2ZM186.29,223.74h-1.46l-5.83-7.57v7.57h-1.82v-10.8h1.46l5.81,7.56v-7.56h1.84v10.8ZM195.86,214.49h-5.3v2.99h4.99v1.54h-4.99v3.17h5.3v1.54h-7.22v-10.8h7.22v1.55ZM157.48,219.68h3.98l-1.99-4.62-1.98,4.62ZM133.18,214.86c-.35-.27-.9-.41-1.65-.41h-2.44v3.28h2.44c.74,0,1.29-.14,1.64-.41.35-.27.53-.68.53-1.24s-.18-.96-.52-1.22ZM121.39,219.02h-2.77v3.2h2.77c.71,0,1.23-.13,1.55-.38.33-.25.5-.65.5-1.2s-.17-.97-.5-1.22c-.32-.26-.84-.4-1.55-.4ZM123.16,215.97c0-.51-.17-.89-.5-1.14-.33-.25-.85-.38-1.53-.38h-2.52v3.04h2.52c1.36,0,2.03-.51,2.03-1.51ZM159.46,215.06l-1.98,4.62h3.98l-1.99-4.62ZM159.46,215.06l-1.98,4.62h3.98l-1.99-4.62ZM159.46,215.06l-1.98,4.62h3.98l-1.99-4.62ZM159.46,215.06l-1.98,4.62h3.98l-1.99-4.62Z" style="fill: #2f93d0;"/>
          </g>
        </g>
        <g>
          <path d="M62.08,408.43l.05,1.42-8.42.3-.61-17.49,8.15-.28.05,1.42-6.6.23.22,6.47,6.17-.21.05,1.42-6.17.21.24,6.75,6.87-.24Z" style="fill: #fff;"/>
          <path d="M64.2,392.27l1.6-.06,5.07,10.03c.65,1.23,1.62,3.27,2.05,4.26l.07-.03c-.12-1.28-.33-3.54-.38-5.04l-.33-9.45,1.55-.05.61,17.49-1.6.06-5.14-10.1c-.59-1.16-1.56-3.32-1.92-4.18l-.08.03c.1,1.32.24,3.32.29,4.69l.34,9.8-1.55.05-.61-17.49Z" style="fill: #fff;"/>
          <path d="M77.42,404.26l-.26-7.42c-.12-3.45,1.66-5.34,4.54-5.44,2.83-.1,4.76,1.61,5,4.83l-1.5.05c-.21-2.42-1.5-3.5-3.45-3.43-1.99.07-3.17,1.33-3.08,3.96l.26,7.4c.09,2.62,1.51,3.8,3.48,3.73,2-.07,3.33-1.34,3.25-3.72l-.11-3.12-3.4.12-.05-1.4,4.87-.17.16,4.52c.11,3.17-1.82,5.12-4.67,5.22-2.85.1-4.92-1.71-5.04-5.13Z" style="fill: #fff;"/>
          <path d="M96.65,404.54l-5.55.19-.88,4.14-1.65.06,3.99-17.65,1.7-.06,5.21,17.33-1.65.06-1.17-4.06ZM96.25,403.16l-2.05-7.19c-.31-1.06-.6-2.31-.7-2.73h-.05c-.06.43-.27,1.69-.5,2.77l-1.55,7.31,4.85-.17Z" style="fill: #fff;"/>
          <path d="M100.43,403.46l-.26-7.42c-.12-3.45,1.66-5.34,4.54-5.44,2.83-.1,4.76,1.61,5,4.83l-1.49.05c-.21-2.42-1.5-3.5-3.45-3.43-2,.07-3.17,1.33-3.08,3.96l.26,7.4c.09,2.62,1.51,3.8,3.48,3.73,2-.07,3.33-1.34,3.25-3.72l-.11-3.13-3.4.12-.05-1.4,4.87-.17.16,4.52c.11,3.17-1.82,5.12-4.67,5.22-2.85.1-4.92-1.71-5.03-5.13Z" style="fill: #fff;"/>
          <path d="M121.37,406.36l.05,1.42-8.42.3-.61-17.49,8.15-.28.05,1.42-6.6.23.22,6.47,6.17-.21.05,1.42-6.17.21.24,6.75,6.87-.24ZM115.93,388.73l-1.47.05,2.19-2.9,1.8-.06-2.52,2.92Z" style="fill: #fff;"/>
          <path d="M132.47,405.97l.05,1.42-8.42.3-.61-17.49,8.15-.28.05,1.42-6.6.23.22,6.47,6.17-.22.05,1.42-6.17.22.24,6.75,6.87-.24Z" style="fill: #fff;"/>
          <path d="M149.46,394.67c.12,3.6-1.58,5.56-4.8,5.67l-2.65.09.23,6.62-1.55.05-.61-17.49,4.2-.15c3.23-.11,5.07,1.78,5.19,5.2ZM147.91,394.72c-.09-2.6-1.24-3.86-3.59-3.78l-2.65.09.28,7.92,2.65-.09c2.35-.08,3.4-1.37,3.31-4.14Z" style="fill: #fff;"/>
          <path d="M151.77,401.29l-.23-6.65c-.12-3.52,1.67-5.81,4.83-5.92,3.14-.11,5.1,2.05,5.22,5.57l.23,6.65c.12,3.52-1.67,5.81-4.82,5.92-3.15.11-5.1-2.05-5.23-5.57ZM160.24,401l-.23-6.64c-.09-2.7-1.32-4.21-3.59-4.13-2.28.08-3.4,1.67-3.31,4.37l.23,6.65c.09,2.7,1.33,4.21,3.6,4.13,2.27-.08,3.39-1.67,3.29-4.37Z" style="fill: #fff;"/>
          <path d="M164.69,401.17l-.43-12.4,1.54-.05.43,12.4c.09,2.65,1.46,3.78,3.36,3.71s3.19-1.29,3.09-3.93l-.43-12.4,1.54-.06.43,12.4c.12,3.5-1.78,5.39-4.58,5.49-2.8.1-4.83-1.66-4.96-5.15Z" style="fill: #fff;"/>
          <path d="M180.98,398.87l-1.92.07.24,6.82-1.55.05-.61-17.49,4-.14c3.23-.11,5.07,1.7,5.18,4.95.11,3.05-1.28,5.05-3.66,5.58l4.54,6.77-1.8.06-4.42-6.68ZM179,397.49l2.42-.09c2.28-.08,3.41-1.54,3.32-4.12-.09-2.5-1.31-3.73-3.56-3.65l-2.45.09.27,7.77Z" style="fill: #fff;"/>
          <path d="M203.41,403.49l.05,1.42-8.42.3-.61-17.49,8.15-.28.05,1.42-6.6.23.22,6.47,6.17-.22.05,1.42-6.17.22.24,6.75,6.87-.24Z" style="fill: #fff;"/>
          <path d="M213.36,388.51l-3.85.13.56,16.04-1.55.06-.56-16.04-3.85.13-.05-1.45,9.25-.32.05,1.45Z" style="fill: #fff;"/>
          <path d="M227.96,399.96l-5.55.19-.88,4.14-1.65.06,3.99-17.65,1.7-.06,5.21,17.33-1.65.06-1.16-4.06ZM227.56,398.57l-2.05-7.19c-.31-1.06-.6-2.31-.7-2.73h-.05c-.06.43-.27,1.69-.5,2.77l-1.55,7.31,4.85-.17Z" style="fill: #fff;"/>
          <path d="M229.92,386.48l1.65-.06,3.01,10.85c.49,1.79.81,3.07,1.18,4.39h.1c.28-1.34.5-2.65.86-4.46l2.25-11.04,1.65-.06-3.84,17.65-1.8.06-5.06-17.34Z" style="fill: #fff;"/>
          <path d="M251.55,401.81l.05,1.42-8.42.3-.61-17.49,8.15-.28.05,1.42-6.6.23.22,6.47,6.17-.21.05,1.42-6.17.21.24,6.75,6.87-.24Z" style="fill: #fff;"/>
          <path d="M253.64,398.21l-.27-7.6c-.12-3.37,1.74-5.32,4.49-5.41,2.85-.1,4.74,1.64,5.03,4.88l-1.5.05c-.27-2.47-1.51-3.6-3.48-3.53-1.87.07-3.13,1.36-3.04,3.96l.27,7.6c.09,2.6,1.48,3.8,3.41,3.73,2-.07,3.11-1.33,3.27-3.77l1.5-.05c-.14,3.21-1.85,5.12-4.72,5.22-2.79.1-4.83-1.71-4.95-5.08Z" style="fill: #fff;"/>
          <path d="M62.48,433.5l.05,1.48-7.95.28-.61-17.49,1.55-.06.56,16.02,6.4-.22Z" style="fill: #fff;"/>
          <path d="M72.79,433.19l.05,1.42-8.42.29-.61-17.49,8.15-.28.05,1.42-6.6.23.23,6.47,6.17-.22.05,1.42-6.17.22.24,6.75,6.87-.24Z" style="fill: #fff;"/>
          <path d="M74.24,430.06l1.54-.05c.15,2.17,1.44,3.28,3.39,3.21,2.13-.07,3.13-1.43,3.06-3.33-.14-4.05-7.89-3.8-8.07-8.88-.09-2.4,1.67-4.34,4.37-4.43,2.75-.1,4.51,1.79,4.74,4.54l-1.55.05c-.18-2.19-1.42-3.15-3.09-3.1-1.9.07-2.96,1.2-2.9,2.88.14,4.05,7.88,3.63,8.07,8.88.08,2.37-1.46,4.78-4.53,4.89-2.9.1-4.86-1.76-5.04-4.66Z" style="fill: #fff;"/>
          <path d="M90.11,434.56c1.85-.06,2.79-.95,2.7-3.57l-.51-14.57,1.55-.06.51,14.57c.12,3.45-1.4,5-4.21,5.1l-.05-1.47Z" style="fill: #fff;"/>
          <path d="M106.34,432.02l.05,1.42-8.42.29-.61-17.49,8.15-.28.05,1.42-6.6.23.23,6.47,6.17-.22.05,1.42-6.17.22.24,6.75,6.87-.24Z" style="fill: #fff;"/>
          <path d="M108.62,428.26l-.43-12.39,1.55-.06.43,12.39c.09,2.65,1.45,3.78,3.35,3.71s3.19-1.29,3.09-3.94l-.43-12.39,1.54-.05.43,12.39c.12,3.5-1.79,5.39-4.59,5.49-2.8.1-4.83-1.66-4.95-5.16Z" style="fill: #fff;"/>
          <path d="M121.07,415.42l1.6-.06,5.07,10.03c.65,1.23,1.62,3.27,2.05,4.26l.07-.03c-.12-1.28-.33-3.54-.38-5.04l-.33-9.45,1.55-.05.61,17.49-1.6.06-5.14-10.1c-.59-1.16-1.56-3.32-1.92-4.18l-.08.03c.1,1.32.24,3.32.29,4.69l.34,9.8-1.55.05-.61-17.49Z" style="fill: #fff;"/>
          <path d="M143.3,430.73l.05,1.42-8.42.29-.61-17.49,8.15-.28.05,1.42-6.6.23.23,6.47,6.17-.22.05,1.42-6.17.22.24,6.75,6.87-.24Z" style="fill: #fff;"/>
          <path d="M144.76,427.6l1.54-.05c.15,2.17,1.44,3.28,3.39,3.21,2.13-.07,3.12-1.43,3.06-3.33-.14-4.05-7.89-3.8-8.07-8.88-.08-2.4,1.67-4.34,4.37-4.43,2.75-.1,4.51,1.79,4.74,4.54l-1.55.05c-.18-2.19-1.42-3.15-3.09-3.1-1.9.07-2.96,1.2-2.9,2.88.14,4.05,7.88,3.63,8.07,8.88.08,2.37-1.46,4.78-4.53,4.89-2.9.1-4.86-1.76-5.04-4.66Z" style="fill: #fff;"/>
        </g>
        <g>
          <path d="M50.89,303.32c-.21-5.94,6.4-8.75,6.28-12.17-.03-.97-.62-1.85-1.82-1.8-1.11.04-1.76.85-1.77,2.27l-2.94.1c.04-3.32,1.71-5.19,4.58-5.29,3.29-.11,4.95,2.17,5.03,4.48.17,4.83-6.27,8.03-6.16,11.42l6.65-.23.1,2.87-9.88.35-.07-2Z" style="fill: #fff;"/>
          <path d="M61.97,299.83l-.29-8.15c-.12-3.36,1.73-5.48,4.88-5.59,3.21-.11,5.2,1.87,5.31,5.24l.29,8.15c.12,3.34-1.73,5.43-4.94,5.54-3.15.11-5.14-1.85-5.26-5.18ZM69.15,299.61l-.28-8.15c-.06-1.66-.82-2.5-2.19-2.45-1.34.05-2.05.94-1.99,2.6l.28,8.15c.06,1.6.82,2.44,2.16,2.4,1.37-.05,2.07-.94,2.02-2.54Z" style="fill: #fff;"/>
          <path d="M73.43,302.54c-.21-5.94,6.4-8.75,6.28-12.17-.03-.97-.62-1.85-1.82-1.8-1.11.04-1.76.85-1.77,2.27l-2.94.1c.04-3.32,1.71-5.19,4.58-5.29,3.29-.11,4.95,2.17,5.03,4.48.17,4.83-6.27,8.03-6.16,11.42l6.65-.23.1,2.87-9.88.35-.07-2Z" style="fill: #fff;"/>
          <path d="M94.42,296.38l.1,2.76c.1,3-1.9,5.04-4.85,5.14-2.92.1-5.03-1.8-5.14-4.79l-.32-9.12c-.11-3,1.83-5.01,4.77-5.11,2.87-.1,4.9,1.75,5.11,4.72l-3.05.11c-.17-1.18-.86-1.84-1.99-1.8-1.16.04-1.84.75-1.8,1.98l.09,2.63c.51-.52,1.33-.94,2.39-.98,2.63-.09,4.59,1.76,4.68,4.47ZM91.35,296.7c-.04-1.26-.86-1.97-2.02-1.93-1.18.04-1.89.8-1.85,2.06l.09,2.52c.05,1.26.83,1.94,1.99,1.9,1.16-.04,1.93-.78,1.88-2.04l-.09-2.52Z" style="fill: #fff;"/>
          <path d="M95.3,293.04l6.49-.23.09,2.68-6.49.23-.09-2.68Z" style="fill: #fff;"/>
          <path d="M102.98,301.5c-.21-5.94,6.41-8.75,6.29-12.17-.03-.97-.62-1.85-1.83-1.8-1.1.04-1.76.85-1.76,2.27l-2.94.1c.04-3.32,1.71-5.19,4.58-5.29,3.29-.11,4.95,2.17,5.03,4.48.17,4.83-6.27,8.04-6.15,11.42l6.65-.23.1,2.87-9.88.35-.07-2Z" style="fill: #fff;"/>
          <path d="M114.07,298.01l-.29-8.15c-.12-3.36,1.73-5.48,4.88-5.59,3.21-.11,5.2,1.87,5.31,5.24l.29,8.15c.12,3.34-1.73,5.43-4.94,5.54-3.15.11-5.14-1.85-5.26-5.18ZM121.25,297.79l-.28-8.15c-.06-1.66-.82-2.5-2.19-2.45-1.34.05-2.05.94-1.99,2.59l.28,8.15c.06,1.6.82,2.44,2.17,2.4,1.37-.05,2.07-.94,2.02-2.54Z" style="fill: #fff;"/>
          <path d="M134.99,295.83l.04,1.18c.13,3.7-1.33,5.73-4.77,5.85-3.07.11-4.93-1.72-5.15-5.16l3.05-.11c.16,1.63.79,2.29,1.97,2.25,1.39-.05,1.86-.91,1.8-2.77l-.03-1.03c-.07-1.89-.88-2.42-2.26-2.37l-1.71.06-.07-2.08,2.65-4.72-5.12.18-.1-2.81,8.88-.31.07,2.05-3,5.26c2.32.13,3.68,2.16,3.77,4.53Z" style="fill: #fff;"/>
          <path d="M141.24,283.75l.64,18.4-3.07.11-.5-14.22-2.57,1.75-.12-3.42,3.54-2.54,2.08-.07Z" style="fill: #fff;"/>
        </g>
      </g>
    </g>
  </g>
</svg>
