<?xml version="1.0" encoding="UTF-8"?>
<svg id="Calque_1" data-name="Calque 1" xmlns="http://www.w3.org/2000/svg" viewBox="0 0 1792 1792">
  <defs>
    <style>
      .cls-1 {
        fill: none;
        stroke: #4e465f;
        stroke-miterlimit: 10;
        stroke-width: 50px;
      }

      .cls-2 {
        fill: #4e465f;
      }
    </style>
  </defs>
  <circle class="cls-1" cx="896" cy="896" r="864.57"/>
  <path class="cls-2" d="M896,656c-132.55,0-240,107.45-240,240s107.45,240,240,240,240-107.45,240-240c-.14-132.49-107.51-239.86-240-240ZM896,1056c-88.37,0-160-71.63-160-160s71.63-160,160-160,160,71.63,160,160-71.63,160-160,160ZM1136,376h-480c-154.57.17-279.83,125.43-280,280v480c.17,154.57,125.43,279.83,280,280h480c154.57-.17,279.83-125.43,280-280v-480c-.17-154.57-125.43-279.83-280-280ZM1336,1136c0,110.46-89.54,200-200,200h-480c-110.46,0-200-89.54-200-200v-480c0-110.46,89.54-200,200-200h480c110.46,0,200,89.54,200,200v480ZM1216,636c0,33.14-26.86,60-60,60s-60-26.86-60-60,26.86-60,60-60,60,26.86,60,60Z"/>
</svg>